<svg fill="#FEFEFE" xmlns="http://www.w3.org/2000/svg" xmlns:xlink="http://www.w3.org/1999/xlink" version="1.1" x="0px" y="0px" viewBox="0 0 128 128" style="enable-background:new 0 0 128 128;" xml:space="preserve"><g><g><path d="M78.542,34.609l-6-2.468c-0.375-0.154-0.807-0.151-1.181,0.013c-0.349,0.153-0.625,0.434-0.764,0.778    l-0.027,0.071c-0.242,0.71,0.13,1.485,0.847,1.764l4.013,1.563l-4.013,1.563c-0.717,0.28-1.089,1.055-0.846,1.765    c0.129,0.376,0.417,0.685,0.791,0.849c0.191,0.084,0.399,0.125,0.605,0.125c0.196,0,0.393-0.038,0.576-0.113l6-2.468    c0.716-0.294,1.177-0.969,1.177-1.721S79.257,34.903,78.542,34.609z"></path><path d="M57.43,33.002c-0.129-0.376-0.417-0.686-0.79-0.849c-0.374-0.163-0.804-0.167-1.181-0.013l-6.002,2.468    c-0.715,0.294-1.177,0.969-1.177,1.721s0.462,1.427,1.177,1.721l6.002,2.468c0.183,0.075,0.379,0.113,0.575,0.113    c0.207,0,0.414-0.042,0.605-0.125c0.373-0.163,0.661-0.473,0.79-0.849c0.243-0.71-0.129-1.485-0.846-1.764l-4.014-1.563    l4.014-1.563C57.301,34.487,57.673,33.712,57.43,33.002z"></path><path d="M66.173,29.347c-0.597,0-1.128,0.366-1.324,0.91l-4.492,12.518c-0.15,0.419-0.084,0.867,0.182,1.229    c0.266,0.362,0.682,0.569,1.141,0.569h0.029c0.597,0,1.13-0.367,1.324-0.913l4.463-12.517c0.15-0.419,0.082-0.866-0.184-1.228    C67.046,29.554,66.631,29.347,66.173,29.347z"></path><path d="M64,2C29.813,2,2,29.813,2,64c0,34.187,27.813,62,62,62c34.187,0,62-27.813,62-62    C126,29.813,98.187,2,64,2z M28.04,72.605v-5.494h19.474c0.019,0.811,0.101,1.536,0.19,2.146c0,0,0.087,0.541,0.14,0.869    c-0.141,0.171-0.268,0.35-0.388,0.533c-0.04,0.061-0.074,0.124-0.111,0.186c-0.076,0.126-0.148,0.254-0.214,0.384    c-0.037,0.074-0.071,0.149-0.105,0.225c-0.056,0.125-0.108,0.251-0.155,0.379c-0.029,0.078-0.057,0.156-0.083,0.235    c-0.044,0.136-0.08,0.274-0.114,0.412c-0.017,0.072-0.038,0.142-0.052,0.214c-0.04,0.199-0.071,0.399-0.089,0.601    c-0.001,0.015-0.004,0.03-0.005,0.045c-0.018,0.21-0.022,0.42-0.016,0.631c0.002,0.071,0.01,0.141,0.015,0.211    c0.007,0.103,0.009,0.206,0.021,0.309H30.023C28.93,74.493,28.04,73.646,28.04,72.605z M45.764,110.146    c0.003-0.465,0.007-0.848,0.007-0.856c-0.002-0.949,0.079-1.903,0.241-2.835c0.098-0.563,0.233-1.147,0.402-1.735    c0.008-0.026,0.014-0.051,0.02-0.077c0.086-0.37,0.176-0.691,0.268-0.954c0.366-1.047,1.486-3.768,3.989-6.406    c1.486-1.567,3.773-2.989,5.142-3.768c1.691,1.082,5.216,3.089,8.157,3.167c0.013,0.001,0.027,0.001,0.041,0.001    c3.021,0,6.654-2.117,8.447-3.251l0.259,0.249c0.087,0.084,0.184,0.157,0.288,0.218c1.595,0.93,3.036,2.069,4.284,3.385    c2.412,2.542,3.534,5.105,3.988,6.406h0.001c0.546,1.564,0.82,4.349,0.911,6.457H45.764z M50.992,70.304l-0.025-0.122    c-0.025-0.121-0.051-0.243-0.068-0.342l-0.17-1.05c-0.2-1.384-0.337-3.231,0.38-5.26c0.031-0.089,0.062-0.172,0.092-0.249    c0.186-0.156,0.372-0.311,0.558-0.466c0.287-0.24,0.575-0.479,0.862-0.723c0.558-0.473,0.699-1.272,0.353-1.909    c-0.01-0.02-0.017-0.041-0.029-0.061c-0.113-0.193-0.259-0.496-0.327-0.85c-0.002-0.009-0.003-0.017-0.005-0.026    c-0.007-0.04-0.012-0.082-0.017-0.123c-0.003-0.03-0.007-0.061-0.009-0.092c-0.002-0.026-0.002-0.052-0.003-0.078    c-0.001-0.046-0.001-0.093,0.001-0.141c0.001-0.016,0.002-0.031,0.003-0.047c0.004-0.057,0.011-0.114,0.021-0.173    c0.002-0.01,0.004-0.02,0.006-0.031c0.012-0.062,0.028-0.125,0.048-0.188c0.003-0.008,0.005-0.016,0.008-0.025    c0.021-0.063,0.047-0.127,0.077-0.191c0.004-0.009,0.008-0.019,0.013-0.028c0.03-0.061,0.066-0.122,0.105-0.183    c0.008-0.012,0.015-0.025,0.023-0.037c0.039-0.057,0.085-0.114,0.133-0.171c0.013-0.015,0.023-0.03,0.037-0.045    c0.049-0.055,0.106-0.109,0.164-0.162c0.017-0.016,0.031-0.032,0.049-0.047c0.078-0.068,0.164-0.135,0.259-0.2    c0.083-0.057,0.166-0.128,0.236-0.2c0.01-0.01,0.033-0.034,0.069-0.068c0.002-0.002,0.006-0.006,0.008-0.008    c0.033-0.031,0.077-0.072,0.13-0.12c0.037-0.033,0.086-0.075,0.133-0.115c0.028-0.024,0.052-0.045,0.083-0.07    c0.085-0.07,0.182-0.148,0.293-0.233c0.001-0.001,0.002-0.002,0.004-0.003c1.146-0.874,3.66-2.398,7.418-2.621    c0.047-0.003,0.09-0.009,0.137-0.011c0.299-0.015,0.613-0.015,0.928-0.012c0.089,0.001,0.171-0.005,0.261-0.003    c0.407,0.01,0.826,0.035,1.258,0.078c0.056,0.005,0.111,0.007,0.168,0.008c1.688-0.02,4.935,0.29,7.787,2.586    c2.687,2.137,3.565,4.85,3.939,6.009c0.826,2.553,0.594,4.684,0.407,6.396l-0.009,0.08c-0.05,0.458-0.118,0.893-0.194,1.318    c-0.096,0.55,0.111,1.11,0.542,1.463c0.117,0.096,0.225,0.235,0.316,0.411c0.272,0.526,0.388,1.372,0.137,2.316    c-0.016,0.06-0.039,0.113-0.057,0.171c-0.069,0.213-0.155,0.431-0.276,0.663c-0.011,0.022-0.015,0.046-0.025,0.068    c-0.461,0.854-1.143,1.356-1.647,1.31c-0.66-0.051-1.267,0.321-1.527,0.926c-0.684,1.601-1.48,3.145-2.364,4.59    c-1.298,2.12-2.488,3.563-3.637,4.416c-0.247,0.114-0.668,0.304-1.031,0.424c-2.651,0.877-4.944,0.378-6.074,0.001    c-0.37-0.123-0.657-0.232-0.881-0.318c-0.077-0.029-0.165-0.062-0.262-0.096c-0.026-0.022-0.048-0.047-0.076-0.067    c-1.287-0.929-2.635-2.488-4.007-4.634c-0.917-1.434-1.74-2.973-2.447-4.575c-0.217-0.493-0.675-0.836-1.207-0.903    c-0.872-0.111-1.623-0.58-2.07-1.253c-0.005-0.007-0.006-0.016-0.011-0.023c-0.071-0.108-0.133-0.218-0.186-0.329    c-0.05-0.108-0.095-0.219-0.13-0.335c-0.289-0.961,0.041-2.042,0.84-2.755C50.918,71.401,51.103,70.843,50.992,70.304z     M70.184,91.232c-3.221,1.928-5.096,2.37-6.133,2.376c-1.71-0.055-4.104-1.22-5.748-2.172c0.293-0.418,0.606-0.906,0.958-1.464    c0.044-0.068,0.087-0.137,0.13-0.205c0.173,0.063,0.368,0.132,0.591,0.206c1.488,0.495,4.506,1.154,7.996,0.001    c0.214-0.072,0.434-0.156,0.643-0.242L70.184,91.232z M99.96,72.584c0,1.053-0.9,1.909-2.006,1.909H80.705    c0.034-0.218,0.056-0.435,0.069-0.649c0.004-0.061,0.001-0.12,0.003-0.18c0.006-0.164,0.009-0.327,0.003-0.488    c-0.003-0.082-0.012-0.161-0.018-0.242c-0.01-0.137-0.023-0.273-0.042-0.407c-0.012-0.085-0.027-0.168-0.043-0.251    c-0.023-0.127-0.05-0.251-0.081-0.374c-0.021-0.082-0.042-0.163-0.067-0.242c-0.037-0.121-0.078-0.24-0.123-0.356    c-0.028-0.074-0.055-0.149-0.086-0.221c-0.053-0.124-0.114-0.242-0.176-0.359c-0.031-0.058-0.059-0.119-0.092-0.176    c-0.1-0.17-0.207-0.334-0.326-0.488c0.036-0.244,0.069-0.492,0.096-0.746l0.009-0.08c0.069-0.629,0.142-1.343,0.177-2.122H99.96    V72.584z M99.96,64.036H79.867c-0.062-0.427-0.138-0.864-0.246-1.318c-0.09-0.379-0.198-0.768-0.327-1.166    c-0.421-1.301-1.538-4.756-4.944-7.465c-3.541-2.85-7.502-3.257-9.643-3.256c-7.721-0.734-12.227,3.229-13.024,4.001    c-1.95,1.406-2.341,3.35-2.062,4.968c0.04,0.231,0.093,0.456,0.158,0.671c-0.279,0.232-0.557,0.465-0.836,0.701    c-0.181,0.154-0.324,0.347-0.418,0.566c-0.076,0.177-0.185,0.441-0.299,0.765c-0.185,0.523-0.316,1.033-0.422,1.533H28.04V22.852    c0-1.041,0.89-1.887,1.983-1.887h67.953c1.094,0,1.984,0.847,1.984,1.887V64.036z"></path></g></g></svg>