<svg height='100px' width='100px'  fill="#000000" xmlns="http://www.w3.org/2000/svg" xmlns:xlink="http://www.w3.org/1999/xlink" version="1.1" x="0px" y="0px" viewBox="0 0 100 100" enable-background="new 0 0 100 100" xml:space="preserve"><path d="M34.045,35.089v-5.32h-5.32v-5.32h-15.95v5.32h10.63v5.32h5.32v37.22h5.32V67h42.54v-5.32h5.32v-5.32h5.32v-21.27H34.045z   M81.905,51.04h-5.32v5.32h-5.32v5.32h-37.22V40.41h47.86V51.04z M60.635,29.77v-5.32h5.32v5.32H60.635z M65.955,19.129h-5.32v-5.32  h5.32V19.129z M60.635,24.45h-5.32v-5.32h5.32V24.45z M55.315,29.77h-5.32v-5.32h5.32V29.77z M55.315,13.81v5.32h-5.32v-5.32H55.315  z M23.405,72.31h5.32v5.32h53.18v-5.32h5.32v10.64h-5.32v5.32h-10.64v-5.32h-26.59v5.32h-10.63v-5.32h-10.64V72.31z"></path></svg>