<svg height='100px' width='100px'  fill="#000000" xmlns="http://www.w3.org/2000/svg" xmlns:xlink="http://www.w3.org/1999/xlink" version="1.1" x="0px" y="0px" viewBox="0 0 100 100" enable-background="new 0 0 100 100" xml:space="preserve"><path d="M87.226,36.705v21.27h-5.319v5.32h-5.32v5.32h-42.54v5.31h-5.32v-37.22h-5.319v-5.32h-10.63v-5.32h15.949v5.32h5.32v5.32  h15.95v5.32h-15.95v21.27h37.22v-5.32h5.32v-5.32h5.32v-10.63h-15.95v-5.32H87.226z M71.266,26.065v-5.32h-5.31v5.32H71.266z   M55.316,36.705h5.319v-15.96h5.32v-5.32h-5.32v-5.31h-5.319v5.31h-5.32v5.32h5.32V36.705z M49.996,20.745h-5.32v5.32h5.32V20.745z   M23.406,84.565h10.64v5.32h10.63v-5.32h26.59v5.32h10.641v-5.32h5.319v-10.64h-5.319v5.32H28.726v-5.32h-5.319V84.565z"></path></svg>