<svg height='100px' width='100px'  fill="#000000" xmlns="http://www.w3.org/2000/svg" xmlns:xlink="http://www.w3.org/1999/xlink" version="1.1" x="0px" y="0px" viewBox="0 0 100 100" enable-background="new 0 0 100 100" xml:space="preserve"><g><polygon points="26.931,73.078 23.07,73.078 23.07,76.928 19.24,76.928 19.24,80.768 15.381,80.768 15.381,84.618 19.24,84.618    23.07,84.618 23.07,80.768 26.931,80.768 26.931,76.928 30.761,76.928 30.761,73.078 30.761,69.238 26.931,69.238  "></polygon><polygon points="19.24,23.078 23.07,23.078 23.07,26.928 26.931,26.928 26.931,30.768 30.761,30.768 30.761,26.928 30.761,23.078    26.931,23.078 26.931,19.238 23.07,19.238 23.07,15.378 19.24,15.378 15.381,15.378 15.381,19.238 19.24,19.238  "></polygon><polygon points="19.24,53.858 23.07,53.858 23.07,49.998 23.07,46.148 19.24,46.148 15.381,46.148 11.551,46.148 7.69,46.148    3.86,46.148 3.86,49.998 3.86,53.858 7.69,53.858 11.551,53.858 15.381,53.858  "></polygon><polygon points="50,23.072 53.859,23.072 53.859,19.232 53.859,15.372 53.859,11.542 53.859,7.682 53.859,3.853 50,3.853 50,3.858    46.141,3.858 46.141,7.688 46.141,11.548 46.141,15.378 46.141,19.238 46.141,23.078 50,23.078  "></polygon><polygon points="80.76,76.922 76.93,76.922 76.93,73.072 73.069,73.072 73.069,69.232 69.239,69.232 69.239,73.072 69.239,76.922    73.069,76.922 73.069,80.762 76.93,80.762 76.93,84.612 80.76,84.612 84.619,84.612 84.619,80.762 80.76,80.762  "></polygon><polygon points="73.069,26.922 76.93,26.922 76.93,23.072 80.76,23.072 80.76,19.232 84.619,19.232 84.619,15.372 80.76,15.372    76.93,15.372 76.93,19.232 73.069,19.232 73.069,23.072 69.239,23.072 69.239,26.922 69.239,30.762 73.069,30.762  "></polygon><polygon points="50,76.928 46.141,76.928 46.141,80.768 46.141,84.618 46.141,88.458 46.141,92.308 46.141,96.148 50,96.148    50,96.143 53.859,96.143 53.859,92.302 53.859,88.452 53.859,84.612 53.859,80.762 53.859,76.922 50,76.922  "></polygon><polygon points="92.31,46.143 88.449,46.143 84.619,46.143 80.76,46.143 76.93,46.143 76.93,49.992 76.93,53.853 80.76,53.853    84.619,53.853 88.449,53.853 92.31,53.853 96.14,53.853 96.14,49.992 96.14,46.143  "></polygon><path d="M69.239,61.542v-3.86h3.83v-3.829v-3.86v-3.85v-3.841h-3.83v-3.85v-3.84H65.38v-3.851h-3.83h-3.86v-3.84h-3.83H50v0.006   h-3.859h-3.83v3.84h-3.86h-3.83v3.851h-3.859v3.84v3.85h-3.83v3.841v3.85v3.86v3.829h3.83v3.86v3.83h3.859v3.86h3.83h3.86v3.84   h3.83H50v-0.006h3.859h3.83v-3.84h3.86h3.83v-3.86h3.859V61.542z M61.55,61.542v3.83h-3.86h-3.83v3.86H50v0.006h-3.859v-3.86h-3.83   h-3.86v-3.83h-3.83v-3.86v-3.829h-3.859v-3.86v-3.85h3.859v-3.841v-3.85h3.83v-3.84h3.86h3.83v-3.851H50v-0.006h3.859v3.851h3.83   h3.86v3.84h3.83v3.85v3.841h3.859v3.85v3.86H65.38v3.829v3.86H61.55z"></path></g></svg>