<svg height='100px' width='100px'  fill="#000000" xmlns="http://www.w3.org/2000/svg" xmlns:xlink="http://www.w3.org/1999/xlink" version="1.1" x="0px" y="0px" viewBox="0 0 100 100" style="enable-background:new 0 0 100 100;" xml:space="preserve"><style type="text/css">
	.st0{fill:#000000;}
</style><path class="st0" d="M43.75,50.16v2.5h-2.5v-2.5v-2.5v-2.5h2.5v2.5V50.16z M46.25,42.66v-2.5h-2.5v2.5v2.5h2.5V42.66z M48.75,37.66  v-2.5h-2.5v2.5v2.5h2.5V37.66z M51.25,40.16h2.5v-2.5v-2.5h-2.5v2.5V40.16z M53.75,45.16h2.5v-2.5v-2.5h-2.5v2.5V45.16z   M56.25,45.16v2.5v2.5v2.5h2.5v-2.5v-2.5v-2.5H56.25z M53.75,55.16h-2.5h-2.5h-2.5v-2.5h-2.5v2.5h-2.5v2.5h2.5v2.5v2.5v2.5v2.5h2.5  h2.5h2.5h2.5h2.5v-2.5v-2.5v-2.5v-2.5h2.5v-2.5h-2.5v-2.5h-2.5V55.16z M51.25,32.66v-2.5h-2.5v2.5v2.5h2.5V32.66z M48.75,50.16h2.5  v-2.5h-2.5V50.16z M48.75,42.66v2.5h2.5v-2.5v-2.5h-2.5V42.66z"></path></svg>