<svg height='100px' width='100px'  fill="#000000" xmlns="http://www.w3.org/2000/svg" xmlns:xlink="http://www.w3.org/1999/xlink" version="1.1" x="0px" y="0px" viewBox="0 0 100 100" style="enable-background:new 0 0 100 100;" xml:space="preserve"><style type="text/css">
	.st0{fill:#000000;}
</style><path class="st0" d="M72.5,48.91v-5h-5v-5v-5v-5h-5v5h-5v-5h-5v-5h-5v5h-5v5h-5v5h-5v5h-5v5h-5v5h5v2.5v2.5v2.5v2.5v2.5v2.5v2.5v2.5  h5H35h2.5H40h2.5H45h2.5H50h2.5H55h2.5H60h2.5H65h2.5h5v-2.5v-2.5v-2.5v-2.5v-2.5v-2.5v-2.5v-2.5h5v-5H72.5z M50,68.91h-2.5v-2.5  v-2.5v-2.5v-2.5H50h2.5v2.5v2.5v2.5v2.5H50z M67.5,56.41v2.5v2.5v2.5v2.5v2.5H65h-2.5H60h-2.5v-2.5v-2.5v-2.5v-2.5v-5H55h-2.5H50  h-2.5H45h-2.5v5v2.5v2.5v2.5v2.5H40h-2.5H35h-2.5v-2.5v-2.5v-2.5v-2.5v-2.5v-2.5v-5h5v-5h5v-5h5v-5h5v5h5v5h5v5h5v5V56.41z"></path></svg>