<svg height='100px' width='100px'  fill="#000000" xmlns="http://www.w3.org/2000/svg" xmlns:xlink="http://www.w3.org/1999/xlink" version="1.1" x="0px" y="0px" viewBox="0 0 100 100" enable-background="new 0 0 100 100" xml:space="preserve"><g><polygon points="30,25 30,22.5 27.5,22.5 27.5,25 27.5,27.5 30,27.5  "></polygon><polygon points="32.5,20 32.5,17.5 32.5,15 30,15 30,17.5 30,20 30,22.5 32.5,22.5  "></polygon><rect x="32.5" y="12.5" width="2.5" height="2.5"></rect><polygon points="35,20 37.5,20 37.5,17.5 37.5,15 35,15 35,17.5  "></polygon><polygon points="37.5,25 37.5,27.5 40,27.5 40,25 40,22.5 40,20 37.5,20 37.5,22.5  "></polygon><polygon points="40,32.5 42.5,32.5 42.5,30 42.5,27.5 40,27.5 40,30  "></polygon><rect x="52.5" y="45" width="2.5" height="2.5"></rect><rect x="55" y="42.5" width="2.5" height="2.5"></rect><polygon points="60,40 60,37.5 57.5,37.5 57.5,40 57.5,42.5 60,42.5  "></polygon><polygon points="62.5,35 62.5,32.5 60,32.5 60,35 60,37.5 62.5,37.5  "></polygon><rect x="62.5" y="30" width="2.5" height="2.5"></rect><polygon points="65,37.5 67.5,37.5 67.5,35 67.5,32.5 65,32.5 65,35  "></polygon><polygon points="67.5,42.5 70,42.5 70,40 70,37.5 67.5,37.5 67.5,40  "></polygon><rect x="70" y="42.5" width="2.5" height="2.5"></rect><rect x="72.5" y="45" width="2.5" height="2.5"></rect><polygon points="92.5,85 92.5,82.5 92.5,80 90,80 90,77.5 90,75 87.5,75 87.5,72.5 87.5,70 85,70 85,67.5 85,65 82.5,65 82.5,62.5    82.5,60 80,60 80,57.5 80,55 77.5,55 77.5,52.5 77.5,50 77.5,47.5 75,47.5 75,50 75,52.5 72.5,52.5 72.5,50 70,50 67.5,50    67.5,47.5 65,47.5 65,50 62.5,50 62.5,52.5 60,52.5 60,55 57.5,55 57.5,52.5 55,52.5 55,50 52.5,50 52.5,47.5 50,47.5 50,50    47.5,50 47.5,47.5 47.5,45 45,45 45,42.5 45,40 45,37.5 45,35 45,32.5 42.5,32.5 42.5,35 42.5,37.5 40,37.5 37.5,37.5 37.5,35    35,35 35,37.5 32.5,37.5 32.5,40 30,40 30,37.5 27.5,37.5 27.5,35 27.5,32.5 27.5,30 27.5,27.5 25,27.5 25,30 25,32.5 25,35    25,37.5 22.5,37.5 22.5,40 22.5,42.5 20,42.5 20,45 20,47.5 20,50 17.5,50 17.5,52.5 17.5,55 15,55 15,57.5 15,60 15,62.5    12.5,62.5 12.5,65 12.5,67.5 12.5,70 10,70 10,72.5 10,75 10,77.5 7.5,77.5 7.5,80 7.5,82.5 7.5,85 5,85 5,87.5 5,90 7.5,90 10,90    12.5,90 15,90 17.5,90 20,90 22.5,90 25,90 27.5,90 30,90 32.5,90 32.5,87.5 32.5,85 30,85 27.5,85 27.5,87.5 25,87.5 25,85    25,82.5 27.5,82.5 27.5,80 27.5,77.5 30,77.5 30,75 30,72.5 32.5,72.5 32.5,70 32.5,67.5 35,67.5 35,70 35,72.5 37.5,72.5 37.5,75    37.5,77.5 40,77.5 40,80 40,82.5 42.5,82.5 42.5,85 42.5,87.5 40,87.5 40,85 37.5,85 35,85 35,87.5 35,90 37.5,90 40,90 42.5,90    45,90 47.5,90 50,90 52.5,90 53.75,90 53.75,81.25 53.75,78.984 53.75,78.75 51.25,78.75 48.75,78.75 48.75,81.25 46.25,81.25    46.25,78.75 46.25,76.25 48.75,76.25 48.75,73.75 48.75,71.25 51.25,71.25 51.25,68.75 51.25,66.25 53.75,66.25 53.75,63.75    53.75,61.25 56.25,61.25 56.25,63.75 56.25,66.25 58.75,66.25 58.75,68.75 58.75,71.25 61.25,71.25 61.25,73.75 61.25,76.25    63.75,76.25 63.75,78.75 63.75,81.25 61.25,81.25 61.25,78.75 58.75,78.75 56.25,78.75 56.25,78.984 56.25,81.25 56.25,90 57.5,90    60,90 62.5,90 65,90 67.5,90 70,90 72.5,90 75,90 77.5,90 80,90 82.5,90 85,90 87.5,90 90,90 92.5,90 95,90 95,87.5 95,85  "></polygon></g></svg>