<svg height='100px' width='100px'  fill="#000000" xmlns="http://www.w3.org/2000/svg" xmlns:xlink="http://www.w3.org/1999/xlink" version="1.1" x="0px" y="0px" viewBox="0 0 100 100" enable-background="new 0 0 100 100" xml:space="preserve"><path d="M84.604,46.145v-3.83h-3.83v-3.86h-3.86h-3.83v-3.83h-3.859h-3.83v-3.86h-3.859h-3.83h-3.86v-3.83v-3.86v-3.83v-3.86v-3.83  v-3.86h-3.86v-3.84h-3.83h-3.859h-3.83v3.84h-3.86v3.86v3.83v3.86v3.83v3.86v3.83v3.86v3.83v3.86v3.83h-3.83v-3.83h-3.86h-3.83  h-3.859h-3.83v3.83h-3.859v3.86v3.85v3.84h3.859v3.86h3.83v3.83h3.859v3.859h3.83v3.83v3.86h3.86v3.829h3.83v3.861v3.83h3.86v3.859  h3.83v3.83h3.859h3.83h3.86h3.86h3.83h3.859h3.83h3.859h3.83v-3.83h3.86v-3.859v-3.83h3.83v-3.861v-3.829v-3.86h3.86v-3.83v-3.859  v-3.83v-3.86v-3.84v-3.85v-3.86H84.604z M84.604,53.854v3.84v3.86v3.83v3.859h-3.83v3.83v3.86v3.829h-3.86v3.861v3.83h-3.83v3.859  h-3.859h-3.83h-3.859h-3.83h-3.86h-3.86h-3.83v-3.859h-3.859v-3.83h-3.83v-3.861v-3.829h-3.86v-3.86h-3.83v-3.83v-3.859h-3.86v-3.83  h-3.83v-3.86h-3.859v-3.84h-3.83v-3.85h3.83v-3.86h3.859h3.83v3.86h3.86v3.85h3.83h3.86v-3.85v-3.86v-3.83v-3.86v-3.83v-3.86v-3.83  v-3.86v-3.83v-3.86v-3.83h3.83v-3.86h3.859v3.86h3.83v3.83v3.86v3.83v3.86v3.83v3.86v3.83v3.86h3.86v-3.86v-3.83h3.86h3.83v3.83  v3.86v3.83h3.859v-3.83v-3.86h3.83v3.86h3.859v3.83v3.86v3.85h3.83v-3.85v-3.86h3.86v3.86h3.83V53.854z"></path></svg>