<svg height='100px' width='100px'  fill="#000000" xmlns="http://www.w3.org/2000/svg" xmlns:xlink="http://www.w3.org/1999/xlink" version="1.1" x="0px" y="0px" viewBox="0 0 100 100" style="enable-background:new 0 0 100 100;" xml:space="preserve"><style type="text/css">
	.st0{fill:#000000;}
</style><path class="st0" d="M52.5,43.91v-2.5H55v2.5v2.5v2.5v2.5v2.5h-2.5v-2.5v-2.5v-2.5V43.91z M55,53.91v2.5h2.5H60v-2.5h-2.5H55z   M67.5,46.41v2.5v2.5v2.5H65h-2.5v2.5H65h2.5v2.5v2.5v2.5H70v-2.5v-2.5v-2.5v-2.5v-2.5v-2.5v-2.5H67.5z M65,66.41v2.5v2.5h2.5v-2.5  v-2.5v-2.5H65V66.41z M62.5,73.91H60h-2.5H55h-2.5H50h-2.5H45h-2.5v-2.5H40v2.5v2.5h2.5H45h2.5H50h2.5H55h2.5H60h2.5H65v-2.5v-2.5  h-2.5V73.91z M60,46.41v2.5v2.5v2.5h2.5v-2.5v-2.5v-2.5v-2.5H65v-2.5h-2.5H60v2.5V46.41z M60,41.41v-2.5h-2.5H55v2.5h2.5H60z   M67.5,46.41v-2.5H65v2.5H67.5z M47.5,53.91v2.5v2.5H50v-2.5h2.5v-2.5H50H47.5z M42.5,58.91v2.5H45h2.5v-2.5H45H42.5z M40,56.41v2.5  h2.5v-2.5H40z M37.5,48.91H40v-2.5v-2.5v-2.5v-2.5v-2.5v-2.5v-2.5v-2.5v-2.5v-2.5h-2.5v2.5v2.5v2.5v2.5v2.5v2.5v2.5v2.5v2.5H35h-2.5  v2.5H35H37.5z M32.5,53.91v-2.5v-2.5H30v2.5v2.5v2.5v2.5h2.5v-2.5V53.91z M35,58.91h-2.5v2.5v2.5H35v-2.5V58.91z M35,63.91v2.5h2.5  v-2.5H35z M40,66.41h-2.5v2.5v2.5H40v-2.5V66.41z M45,23.91v-2.5h-2.5H40v2.5h2.5H45z M45,28.91v2.5v2.5v2.5v2.5v2.5v2.5v2.5v2.5  h-2.5H40v2.5h2.5H45v2.5h2.5v-2.5v-2.5v-2.5v-2.5v-2.5H50h2.5v-2.5H50h-2.5v-2.5v-2.5v-2.5v-2.5v-2.5v-2.5H45v2.5V28.91z"></path></svg>