<svg height='100px' width='100px'  fill="#000000" xmlns="http://www.w3.org/2000/svg" xmlns:xlink="http://www.w3.org/1999/xlink" version="1.1" x="0px" y="0px" viewBox="0 0 100 100" enable-background="new 0 0 100 100" xml:space="preserve"><g><rect x="34.117" y="42.058" fill="#000000" width="5.294" height="10.587"></rect><rect x="44.706" y="42.058" fill="#000000" width="5.294" height="10.587"></rect><path fill="#000000" d="M95,26.176V15.588H73.824v5.294h-26.47v-5.294h-37.06v5.294H5v63.53h10.589v-5.294h21.175v5.294h37.06   v-5.294h10.589v-5.294H95v-5.294h-5.294v-5.295h-5.294v-5.294h5.294v-5.294h-5.294V42.06h5.294v-5.294L95,36.764v-5.294H84.412   v-5.295H95z M15.587,31.471h5.295v-5.295h5.294v10.587h-0.002v0.001H15.587V31.471z M26.176,68.529h-5.294v-5.295h-5.294V57.94   h10.587v0.001h0.001V68.529z M55.292,65.884h-5.294v-5.297h-5.294v5.298h-5.294v-5.298h-5.294v5.298h-5.294l0.002-10.592h-5.294   V39.413h5.294v-5.295h26.47v5.295h5.294v15.881h-5.294L55.292,65.884z M68.529,63.234h-5.295v5.295h-5.294V57.942h0.001V57.94   h10.587V63.234z M68.529,36.764H57.942v-0.001h-0.001V26.176h5.294v5.295h5.294V36.764z"></path></g></svg>