<svg height='100px' width='100px'  fill="#000000" xmlns="http://www.w3.org/2000/svg" xmlns:xlink="http://www.w3.org/1999/xlink" xmlns:sketch="http://www.bohemiancoding.com/sketch/ns" viewBox="0 0 91 91" version="1.1" x="0px" y="0px"><title>rect23566</title><desc>Created with Sketch.</desc><g stroke="none" stroke-width="1" fill="none" fill-rule="evenodd" sketch:type="MSPage"><path d="M23.1228,0.845 L23.1228,8.345 L30.6228,8.345 L38.1228,8.345 L45.6228,8.345 L53.1228,8.345 L60.6228,8.345 L68.1228,8.345 L68.1228,0.845 L60.6228,0.845 L53.1228,0.845 L45.6228,0.845 L38.1228,0.845 L30.6228,0.845 L23.1228,0.845 L23.1228,0.845 Z M68.1228,8.345 L68.1228,15.845 L75.6228,15.845 L75.6228,8.345 L68.1228,8.345 L68.1228,8.345 Z M75.6228,15.845 L75.6228,23.345 L83.1228,23.345 L83.1228,15.845 L75.6228,15.845 L75.6228,15.845 Z M83.1228,23.345 L83.1228,30.845 L83.1228,38.345 L83.1228,45.845 L83.1228,53.345 L83.1228,60.845 L83.1228,68.345 L90.6228,68.345 L90.6228,60.845 L90.6228,53.345 L90.6228,45.845 L90.6228,38.345 L90.6228,30.845 L90.6228,23.345 L83.1228,23.345 L83.1228,23.345 Z M83.1228,68.345 L75.6228,68.345 L75.6228,75.845 L83.1228,75.845 L83.1228,68.345 L83.1228,68.345 Z M75.6228,75.845 L68.1228,75.845 L68.1228,83.345 L75.6228,83.345 L75.6228,75.845 L75.6228,75.845 Z M68.1228,83.345 L60.6228,83.345 L53.1228,83.345 L45.6228,83.345 L38.1228,83.345 L30.6228,83.345 L23.1228,83.345 L23.1228,90.845 L30.6228,90.845 L38.1228,90.845 L45.6228,90.845 L53.1228,90.845 L60.6228,90.845 L68.1228,90.845 L68.1228,83.345 L68.1228,83.345 Z M23.1228,83.345 L23.1228,75.845 L15.6228,75.845 L15.6228,83.345 L23.1228,83.345 L23.1228,83.345 Z M15.6228,75.845 L15.6228,68.345 L8.1228,68.345 L8.1228,75.845 L15.6228,75.845 L15.6228,75.845 Z M8.1228,68.345 L8.1228,60.845 L8.1228,53.345 L8.1228,45.845 L8.1228,38.345 L8.1228,30.845 L8.1228,23.345 L0.6228,23.345 L0.6228,30.845 L0.6228,38.345 L0.6228,45.845 L0.6228,53.345 L0.6228,60.845 L0.6228,68.345 L8.1228,68.345 L8.1228,68.345 Z M8.1228,23.345 L15.6228,23.345 L15.6228,15.845 L8.1228,15.845 L8.1228,23.345 L8.1228,23.345 Z M15.6228,15.845 L23.1228,15.845 L23.1228,8.345 L15.6228,8.345 L15.6228,15.845 L15.6228,15.845 Z M30.6228,23.345 L30.6228,30.845 L23.1228,30.845 L23.1228,38.345 L30.6228,38.345 L30.6228,45.845 L30.6228,53.345 L30.6228,60.845 L30.6228,68.345 L38.1228,68.345 L38.1228,60.845 L38.1228,53.345 L38.1228,45.845 L38.1228,38.345 L45.6228,38.345 L45.6228,30.845 L38.1228,30.845 L38.1228,23.345 L30.6228,23.345 L30.6228,23.345 Z M53.1228,23.345 L53.1228,30.845 L53.1228,38.345 L53.1228,45.845 L53.1228,53.345 L45.6228,53.345 L45.6228,60.845 L53.1228,60.845 L53.1228,68.345 L60.6228,68.345 L60.6228,60.845 L68.1228,60.845 L68.1228,53.345 L60.6228,53.345 L60.6228,45.845 L60.6228,38.345 L60.6228,30.845 L60.6228,23.345 L53.1228,23.345 L53.1228,23.345 Z" fill="#000000" sketch:type="MSShapeGroup"></path></g></svg>