<svg height='100px' width='100px'  fill="#000000" xmlns="http://www.w3.org/2000/svg" xmlns:xlink="http://www.w3.org/1999/xlink" version="1.1" x="0px" y="0px" viewBox="0 0 100 100" style="enable-background:new 0 0 100 100;" xml:space="preserve"><rect x="24" y="30" width="2" height="2"></rect><rect x="28" y="30" width="2" height="2"></rect><rect x="32" y="30" width="2" height="2"></rect><path d="M64,50h-2v-4h-2v-2h-2v-2h-4v2h-2h-2v2h-2v-2h2v-2h4v-2h-8v2h-3h-1v2h-2v2h-2v4h-2v8h2v4h2v2h2v2h4v2h8v-2h4v-2h2v-2h2v-4h2  V50z M48,66h-2v-2h-4v-2h-2v-4h-2v-8h2v-2h2v4h2v4h2v6h2V66z M60,62h-2v2h-4v2h-4v-2h2v-2h2v-2h2v-2h-4v-2h-4v-2h-2v-4h4v2h2v-6h2  v-2h4v2h2v2h-2v4h2v4h2v2h-2V62z"></path><rect x="24" y="30" width="2" height="2"></rect><rect x="28" y="30" width="2" height="2"></rect><rect x="32" y="30" width="2" height="2"></rect><path d="M80,28v-2H20v2h-2v6v38h2v2h60v-2h2V34v-6H80z M20,28h60v6H20V28z M80,36v36H20V36H80z"></path></svg>