<svg height='100px' width='100px'  fill="#000000" xmlns="http://www.w3.org/2000/svg" xmlns:xlink="http://www.w3.org/1999/xlink" version="1.1" x="0px" y="0px" viewBox="0 0 100 100" enable-background="new 0 0 100 100" xml:space="preserve"><g><polygon points="30,30 30,27.5 27.5,27.5 27.5,30 27.5,32.5 30,32.5  "></polygon><polygon points="32.5,25 32.5,22.5 32.5,20 30,20 30,22.5 30,25 30,27.5 32.5,27.5  "></polygon><rect x="32.5" y="17.5" width="2.5" height="2.5"></rect><polygon points="35,25 37.5,25 37.5,22.5 37.5,20 35,20 35,22.5  "></polygon><polygon points="37.5,30 37.5,32.5 40,32.5 40,30 40,27.5 40,25 37.5,25 37.5,27.5  "></polygon><polygon points="40,37.5 42.5,37.5 42.5,35 42.5,32.5 40,32.5 40,35  "></polygon><rect x="52.5" y="50" width="2.5" height="2.5"></rect><rect x="55" y="47.5" width="2.5" height="2.5"></rect><polygon points="60,45 60,42.5 57.5,42.5 57.5,45 57.5,47.5 60,47.5  "></polygon><polygon points="62.5,40 62.5,37.5 60,37.5 60,40 60,42.5 62.5,42.5  "></polygon><rect x="62.5" y="35" width="2.5" height="2.5"></rect><polygon points="65,42.5 67.5,42.5 67.5,40 67.5,37.5 65,37.5 65,40  "></polygon><polygon points="67.5,47.5 70,47.5 70,45 70,42.5 67.5,42.5 67.5,45  "></polygon><rect x="70" y="47.5" width="2.5" height="2.5"></rect><rect x="72.5" y="50" width="2.5" height="2.5"></rect><polygon points="92.5,87.5 92.5,85 90,85 90,82.5 90,80 87.5,80 87.5,77.5 87.5,75 85,75 85,72.5 85,70 82.5,70 82.5,67.5 82.5,65    80,65 80,62.5 80,60 77.5,60 77.5,57.5 77.5,55 77.5,52.5 75,52.5 75,55 75,57.5 72.5,57.5 72.5,55 70,55 67.5,55 67.5,52.5    65,52.5 65,55 62.5,55 62.5,57.5 60,57.5 60,60 57.5,60 57.5,57.5 55,57.5 55,55 52.5,55 52.5,52.5 50,52.5 50,55 47.5,55    47.5,52.5 47.5,50 45,50 45,47.5 45,45 45,42.5 45,40 45,37.5 42.5,37.5 42.5,40 42.5,42.5 40,42.5 37.5,42.5 37.5,40 35,40    35,42.5 32.5,42.5 32.5,45 30,45 30,42.5 27.5,42.5 27.5,40 27.5,37.5 27.5,35 27.5,32.5 25,32.5 25,35 25,37.5 25,40 25,42.5    22.5,42.5 22.5,45 22.5,47.5 20,47.5 20,50 20,52.5 20,55 17.5,55 17.5,57.5 17.5,60 15,60 15,62.5 15,65 15,67.5 12.5,67.5    12.5,70 12.5,72.5 12.5,75 10,75 10,77.5 10,80 10,82.5 7.5,82.5 7.5,85 7.5,87.5 7.5,90 5,90 5,92.5 5,95 7.5,95 10,95 12.5,95    15,95 17.5,95 20,95 22.5,95 25,95 27.5,95 30,95 32.5,95 35,95 37.5,95 40,95 42.5,95 45,95 47.5,95 50,95 52.5,95 55,95 57.5,95    60,95 62.5,95 65,95 67.5,95 70,95 72.5,95 75,95 77.5,95 80,95 82.5,95 85,95 87.5,95 90,95 92.5,95 95,95 95,92.5 95,90 92.5,90     "></polygon></g></svg>