<svg height='100px' width='100px'  fill="#000000" xmlns="http://www.w3.org/2000/svg" xmlns:xlink="http://www.w3.org/1999/xlink" version="1.1" x="0px" y="0px" viewBox="0 0 100 100" enable-background="new 0 0 100 100" xml:space="preserve"><path d="M32.775,27.11v-5.32h-5.32v-5.32H11.506v5.32h10.63v5.32h5.319v42.54h5.32v-5.31h42.54v-5.32h5.32V53.7h5.319V27.11H32.775z   M80.636,43.061h-5.32V53.7h-5.32v5.32h-10.63V53.7h5.32v-5.32h5.31V37.75h-10.63v5.31h-5.32v-5.31h-10.64v10.63h5.32v5.32h5.319  v5.32h-21.27V32.43h47.86V43.061z M22.136,69.65h5.319v5.32h53.181v-5.32h5.319v10.64h-5.319v5.32H69.995v-5.32h-26.59v5.32h-10.63  v-5.32h-10.64V69.65z"></path></svg>