<svg height='100px' width='100px'  fill="#000000" xmlns="http://www.w3.org/2000/svg" viewBox="0 0 64 64" x="0px" y="0px"><g><path d="M60,52.184V21a3,3,0,0,0-3-3H40.827c-.124-.115-.238-.24-.367-.351L38,15.541V13.205a10.93,10.93,0,0,0-2.049-6.393L32.813,2.419a1.036,1.036,0,0,0-1.626,0L28.049,6.812A10.93,10.93,0,0,0,26,13.205v2.381L23.586,18H7a3,3,0,0,0-3,3V52.184A3,3,0,0,0,2,55v1a6.006,6.006,0,0,0,6,6H56a6.006,6.006,0,0,0,6-6V55A3,3,0,0,0,60,52.184ZM26,54H38v1a1,1,0,0,1-1,1H27a1,1,0,0,1-1-1Zm10-2a3,3,0,0,1,3-3,2.962,2.962,0,0,1,1.938.739,1,1,0,0,0,1.577-.379,6.978,6.978,0,0,1,9.39-3.719,1,1,0,0,0,1.138-.219A10.956,10.956,0,0,1,58,42.427V52Zm3.159-32.832A10.983,10.983,0,0,1,42.988,27H38V18.174ZM33.612,32H30.388l.333-1h2.558ZM28,29V27h8v2Zm8-15.795V25H28V13.205c0-.069.014-.136.016-.205h7.968C35.986,13.069,36,13.136,36,13.205ZM32,4.721l2.324,3.253A8.927,8.927,0,0,1,35.7,11H28.3a8.927,8.927,0,0,1,1.378-3.026ZM26,18.414V27H21.042a10.922,10.922,0,0,1,3.18-6.808ZM6,21a1,1,0,0,1,1-1H21.743A12.925,12.925,0,0,0,19,28a1,1,0,0,0,1,1h6v1a1,1,0,0,0,1,1h1.613l-.561,1.684A1,1,0,0,0,29,34h6a1,1,0,0,0,.948-1.316L35.387,31H37a1,1,0,0,0,1-1V29h6a1,1,0,0,0,1-1v-.48A12.972,12.972,0,0,0,42.589,20H57a1,1,0,0,1,1,1V40.356a12.893,12.893,0,0,0-5.913,3.2A8.881,8.881,0,0,0,49,43a8.977,8.977,0,0,0-7.807,4.521A4.84,4.84,0,0,0,39,47a5.006,5.006,0,0,0-5,5H28a6.006,6.006,0,0,0-6-6,5.753,5.753,0,0,0-1.081.1,5,5,0,0,0-8.278-2.8A12.821,12.821,0,0,0,6,40.164Zm5.971,24.436a.984.984,0,0,0,.8.308,1,1,0,0,0,.745-.432A3,3,0,0,1,19,47a1.221,1.221,0,0,1-.02.182l-.019.153a1,1,0,0,0,1.4,1.023A3.96,3.96,0,0,1,22,48a4,4,0,0,1,4,4H6V42.19A10.9,10.9,0,0,1,11.971,45.436ZM60,56a4,4,0,0,1-4,4H8a4,4,0,0,1-4-4V55a1,1,0,0,1,1-1H24v1a3,3,0,0,0,3,3H37a3,3,0,0,0,3-3V54H59a1,1,0,0,1,1,1Z"></path><path d="M32,21a3,3,0,1,0-3-3A3,3,0,0,0,32,21Zm0-4a1,1,0,1,1-1,1A1,1,0,0,1,32,17Z"></path><path d="M32,43a1,1,0,0,0,.823-.432C33.478,41.62,35,39.278,35,38a3,3,0,0,0-6,0c0,1.278,1.522,3.62,2.177,4.568A1,1,0,0,0,32,43Zm0-6a1,1,0,0,1,1,1,7.491,7.491,0,0,1-1,2.147A7.443,7.443,0,0,1,31,38,1,1,0,0,1,32,37Z"></path><rect x="39" y="30" width="2" height="4"></rect><rect x="42" y="30" width="2" height="2"></rect><rect x="23" y="30" width="2" height="4"></rect><rect x="20" y="30" width="2" height="2"></rect></g></svg>