<svg height='100px' width='100px'  fill="#000000" xmlns="http://www.w3.org/2000/svg" xmlns:xlink="http://www.w3.org/1999/xlink" version="1.1" x="0px" y="0px" viewBox="0 0 100 100" enable-background="new 0 0 100 100" xml:space="preserve"><path d="M85.833,36.705v21.27h-5.319v5.32h-5.32v5.32h-42.54v5.31h-5.32v-5.31v-31.91h-5.319v-5.32h-10.63v-5.32h15.949v5.32h5.32  v5.32h15.95v5.32h-15.95v21.27h37.22v-5.32h5.32v-5.32h5.32v-10.63h-15.95v-5.32H85.833z M69.873,20.745h-5.31v5.32h5.31V20.745z   M53.924,31.385v5.32h5.319v-5.32h5.32v-5.32h-5.32v-15.95h-5.319v15.95h-5.32v5.32H53.924z M48.604,20.745h-5.32v5.32h5.32V20.745z   M22.014,84.565h10.64v5.32h10.63v-5.32h26.59v5.32h10.641v-5.32h5.319v-10.64h-5.319v5.32H27.333v-5.32h-5.319V84.565z"></path></svg>