<svg height='100px' width='100px'  fill="#000000" xmlns="http://www.w3.org/2000/svg" xmlns:xlink="http://www.w3.org/1999/xlink" version="1.1" x="0px" y="0px" viewBox="0 0 41 40" style="enable-background:new 0 0 41 40;" xml:space="preserve"><g><polygon points="30,17 30,18 30,19 30,20 30,21 30,22 30,23 30,24 30,25 30,26 30,27 31,27 31,26 31,25 31,24 31,23 31,22 31,21    31,20 31,19 31,18 31,17 31,16 30,16  "></polygon><polygon points="30,16 30,15 29,15 28,15 28,16 29,16  "></polygon><polygon points="27,18 27,19 27,20 27,21 27,22 28,22 28,21 28,20 28,19 28,18 28,17 28,16 27,16 27,17  "></polygon><rect x="26" y="15" width="1" height="1"></rect><polygon points="26,15 26,14 25,14 24,14 24,15 25,15  "></polygon><polygon points="23,17 23,18 23,19 23,20 23,21 23,22 24,22 24,21 24,20 24,19 24,18 24,17 24,16 24,15 23,15 23,16  "></polygon><rect x="22" y="14" width="1" height="1"></rect><polygon points="19,8 19,9 19,10 19,11 19,12 19,13 19,14 19,15 19,16 19,17 19,18 19,19 19,20 19,21 19,22 20,22 20,21 20,20    20,19 20,18 20,17 20,16 20,15 20,14 21,14 22,14 22,13 21,13 20,13 20,12 20,11 20,10 20,9 20,8 20,7 20,6 19,6 19,7  "></polygon><polygon points="18,6 19,6 19,5 18,5 17,5 16,5 16,6 17,6  "></polygon><polygon points="15,19 15,20 15,21 16,21 16,20 16,19 16,18 16,17 16,16 16,15 16,14 16,13 16,12 16,11 16,10 16,9 16,8 16,7 16,6    15,6 15,7 15,8 15,9 15,10 15,11 15,12 15,13 15,14 15,15 15,16 15,17 15,18 14,18 13,18 13,19 14,19  "></polygon><rect x="12" y="19" width="1" height="1"></rect><polygon points="12,25 12,24 12,23 12,22 12,21 12,20 11,20 11,21 11,22 11,23 11,24 11,25 11,26 11,27 12,27 12,26  "></polygon><rect x="12" y="27" width="1" height="1"></rect><rect x="13" y="28" width="1" height="1"></rect><rect x="14" y="29" width="1" height="1"></rect><rect x="15" y="30" width="1" height="1"></rect><polygon points="17,31 16,31 16,32 17,32 18,32 18,31  "></polygon><polygon points="22,32 21,32 20,32 19,32 18,32 18,33 19,33 20,33 21,33 22,33 23,33 24,33 24,32 23,32  "></polygon><polygon points="24,31 24,32 25,32 26,32 26,31 25,31  "></polygon><rect x="26" y="30" width="1" height="1"></rect><rect x="27" y="29" width="1" height="1"></rect><rect x="28" y="28" width="1" height="1"></rect><rect x="29" y="27" width="1" height="1"></rect></g></svg>