<svg height='100px' width='100px'  fill="#000000" xmlns="http://www.w3.org/2000/svg" xmlns:xlink="http://www.w3.org/1999/xlink" version="1.1" x="0px" y="0px" viewBox="0 0 100 100" enable-background="new 0 0 100 100" xml:space="preserve"><polygon points="90,49 90,46 90,43 90,43 87,43 87,43 87,46 87,49 87,55 90,55 "></polygon><rect x="72" y="55" width="3" height="3"></rect><polygon points="93,37 93,34 90,34 90,31 87,31 87,25 87,25 84,25 84,22 72,22 72,19 63,19 63,16 36,16 36,19 45,19 45,22 51,22   51,19 60,19 60,22 69,22 69,22 69,28 66,28 66,28 66,34 63,34 63,37 57,37 57,40 66,40 66,37 69,37 69,31 69,31 72,31 72,28 75,28   75,25 81,25 81,28 84,28 84,28 84,31 84,37 90,37 90,40 93,40 93,40 93,43 93,46 93,49 93,52 93,58 90,58 90,61 78,61 78,61 78,67   75,67 75,70 66,70 66,67 63,67 63,61 63,61 69,61 69,64 72,64 72,58 72,58 63,58 63,55 69,55 69,52 72,52 72,49 75,49 75,46 72,46   72,43 69,43 69,43 69,49 66,49 66,52 63,52 63,46 63,43 63,43 60,43 60,43 60,46 60,49 60,52 60,55 60,61 57,61 57,61 57,67 60,67   60,70 63,70 63,73 54,73 54,70 51,70 51,70 51,76 48,76 48,79 54,79 54,76 66,76 66,73 69,73 69,76 75,76 75,73 78,73 78,70 81,70   81,67 84,67 84,64 93,64 93,61 96,61 96,55 96,52 96,49 96,46 96,43 96,40 96,37 96,37 "></polygon><polygon points="57,28 57,28 60,28 60,25 54,25 54,25 54,28 54,34 48,34 48,34 48,37 48,40 48,46 51,46 51,40 51,37 51,37 57,37   57,31 "></polygon><polygon points="78,46 78,52 84,52 84,49 81,49 81,43 81,40 81,37 81,34 81,34 78,34 78,31 75,31 75,31 75,37 78,37 78,37 78,43   75,43 75,46 "></polygon><rect x="45" y="67" width="6" height="3"></rect><polygon points="27,46 30,46 30,40 30,40 27,40 27,40 "></polygon><polygon points="54,58 54,52 54,49 54,46 54,46 51,46 51,46 51,49 51,52 51,58 48,58 48,61 57,61 57,58 "></polygon><polygon points="45,58 45,55 45,52 45,52 39,52 39,55 42,55 42,58 39,58 39,61 27,61 27,64 45,64 "></polygon><rect x="75" y="52" width="3" height="3"></rect><polygon points="33,70 33,76 36,76 36,73 39,73 39,70 "></polygon><rect x="15" y="79" width="3" height="3"></rect><polygon points="39,82 30,82 30,79 27,79 27,73 27,70 27,70 24,70 24,67 21,67 21,67 21,73 24,73 24,73 24,76 24,82 18,82 18,85   42,85 42,82 48,82 48,79 39,79 "></polygon><polygon points="39,37 39,43 42,43 42,37 42,34 42,34 36,34 36,37 "></polygon><polygon points="27,49 27,49 27,55 33,55 33,52 39,52 39,49 "></polygon><polygon points="24,37 21,37 21,37 21,43 18,43 18,40 15,40 15,40 15,46 18,46 18,46 18,49 18,52 18,55 18,58 18,64 15,64 15,61   12,61 12,61 12,67 21,67 21,61 21,58 21,58 24,58 24,55 21,55 21,49 21,46 21,46 24,46 24,40 24,40 27,40 27,34 27,34 24,34 "></polygon><polygon points="18,76 18,73 12,73 12,70 9,70 9,67 6,67 6,61 6,58 6,55 6,55 9,55 9,52 12,52 12,55 15,55 15,49 15,49 9,49 9,43   9,43 12,43 12,37 12,37 15,37 15,34 18,34 18,31 21,31 21,28 24,28 24,25 27,25 27,22 21,22 21,25 18,25 18,28 15,28 15,31 12,31   12,34 9,34 9,34 9,40 6,40 6,40 6,43 6,46 6,52 3,52 3,52 3,55 3,58 3,61 3,64 3,70 6,70 6,73 9,73 9,76 12,76 12,79 15,79 15,76   "></polygon><polygon points="39,25 42,25 42,28 45,28 45,22 45,22 39,22 "></polygon><polygon points="33,28 30,28 30,25 27,25 27,25 27,28 27,34 30,34 30,31 36,31 36,28 39,28 39,25 33,25 "></polygon><rect x="27" y="19" width="9" height="3"></rect></svg>