<svg height='100px' width='100px'  fill="#000000" xmlns="http://www.w3.org/2000/svg" xmlns:xlink="http://www.w3.org/1999/xlink" version="1.1" x="0px" y="0px" viewBox="0 0 100 100" style="enable-background:new 0 0 100 100;" xml:space="preserve"><rect x="54" y="74" width="22" height="2"></rect><rect x="54" y="70" width="22" height="2"></rect><rect x="24" y="72" width="2" height="2"></rect><rect x="34" y="34" width="2" height="2"></rect><rect x="38" y="34" width="2" height="2"></rect><rect x="42" y="34" width="2" height="2"></rect><rect x="46" y="34" width="2" height="2"></rect><rect x="34" y="30" width="2" height="2"></rect><rect x="38" y="30" width="2" height="2"></rect><rect x="42" y="30" width="2" height="2"></rect><rect x="46" y="30" width="2" height="2"></rect><rect x="50" y="30" width="2" height="2"></rect><rect x="54" y="30" width="2" height="2"></rect><rect x="34" y="38" width="2" height="2"></rect><rect x="38" y="38" width="2" height="2"></rect><rect x="64" y="54" width="2" height="2"></rect><rect x="38" y="46" width="2" height="2"></rect><rect x="42" y="46" width="2" height="2"></rect><rect x="34" y="42" width="2" height="2"></rect><rect x="38" y="42" width="2" height="2"></rect><rect x="34" y="46" width="2" height="2"></rect><polygon points="70,50 70,28 68,28 68,26 32,26 32,28 30,28 30,50 32,50 32,52 68,52 68,50 32,50 32,28 68,28 68,50 "></polygon><path d="M80,66v-2H58v-2h-2v-2h18v-2h2V22h-2v-2H26v2h-2v36h2v2h18v2h-2v2H20v2h-2v14h2v2h60v-2h2V66H80z M26,58V22h48v36H26z   M44,62h2v-2h8v2h2v2H44V62z M80,80H20V66h60V80z"></path></svg>