<svg height='100px' width='100px'  fill="#000000" xmlns="http://www.w3.org/2000/svg" xmlns:xlink="http://www.w3.org/1999/xlink" xmlns:sketch="http://www.bohemiancoding.com/sketch/ns" viewBox="0 0 90 67" version="1.1" x="0px" y="0px"><title>rect7396</title><desc>Created with Sketch.</desc><g stroke="none" stroke-width="1" fill="none" fill-rule="evenodd" sketch:type="MSPage"><path d="M66,18.8228 L72,18.8228 L72,12.8228 L66,12.8228 L66,18.8228 Z M66,24.8228 L72,24.8228 L72,18.8228 L66,18.8228 L66,24.8228 Z M66,30.8228 L72,30.8228 L72,24.8228 L66,24.8228 L66,30.8228 Z M66,36.8228 L72,36.8228 L72,30.8228 L66,30.8228 L66,36.8228 Z M66,42.8228 L72,42.8228 L72,36.8228 L66,36.8228 L66,42.8228 Z M66,48.8228 L72,48.8228 L72,42.8228 L66,42.8228 L66,48.8228 Z M66,54.8228 L72,54.8228 L72,48.8228 L66,48.8228 L66,54.8228 Z M60,42.8228 L66,42.8228 L66,36.8228 L60,36.8228 L60,42.8228 Z M72,42.8228 L78,42.8228 L78,36.8228 L72,36.8228 L72,42.8228 Z M48,24.8228 L54,24.8228 L54,18.8228 L48,18.8228 L48,24.8228 Z M42,30.8228 L48,30.8228 L48,24.8228 L42,24.8228 L42,30.8228 Z M36,24.8228 L42,24.8228 L42,18.8228 L36,18.8228 L36,24.8228 Z M42,36.8228 L48,36.8228 L48,30.8228 L42,30.8228 L42,36.8228 Z M42,42.8228 L48,42.8228 L48,36.8228 L42,36.8228 L42,42.8228 Z M42,48.8228 L48,48.8228 L48,42.8228 L42,42.8228 L42,48.8228 Z M42,54.8228 L48,54.8228 L48,48.8228 L42,48.8228 L42,54.8228 Z M42,24.8228 L48,24.8228 L48,18.8228 L42,18.8228 L42,24.8228 Z M42,18.8228 L48,18.8228 L48,12.8228 L42,12.8228 L42,18.8228 Z M18,18.8228 L24,18.8228 L24,12.8228 L18,12.8228 L18,18.8228 Z M12,48.8228 L18,48.8228 L18,42.8228 L12,42.8228 L12,48.8228 Z M24,48.8228 L30,48.8228 L30,42.8228 L24,42.8228 L24,48.8228 Z M18,24.8228 L24,24.8228 L24,18.8228 L18,18.8228 L18,24.8228 Z M18,30.8228 L24,30.8228 L24,24.8228 L18,24.8228 L18,30.8228 Z M18,36.8228 L24,36.8228 L24,30.8228 L18,30.8228 L18,36.8228 Z M18,42.8228 L24,42.8228 L24,36.8228 L18,36.8228 L18,42.8228 Z M18,48.8228 L24,48.8228 L24,42.8228 L18,42.8228 L18,48.8228 Z M18,54.8228 L24,54.8228 L24,48.8228 L18,48.8228 L18,54.8228 Z M18,66.8228 L24,66.8228 L24,60.8228 L18,60.8228 L18,66.8228 Z M24,66.8228 L30,66.8228 L30,60.8228 L24,60.8228 L24,66.8228 Z M30,66.8228 L36,66.8228 L36,60.8228 L30,60.8228 L30,66.8228 Z M36,66.8228 L42,66.8228 L42,60.8228 L36,60.8228 L36,66.8228 Z M42,66.8228 L48,66.8228 L48,60.8228 L42,60.8228 L42,66.8228 Z M48,66.8228 L54,66.8228 L54,60.8228 L48,60.8228 L48,66.8228 Z M54,66.8228 L60,66.8228 L60,60.8228 L54,60.8228 L54,66.8228 Z M60,66.8228 L66,66.8228 L66,60.8228 L60,60.8228 L60,66.8228 Z M66,66.8228 L72,66.8228 L72,60.8228 L66,60.8228 L66,66.8228 Z M72,66.8228 L78,66.8228 L78,60.8228 L72,60.8228 L72,66.8228 Z M78,66.8228 L84,66.8228 L84,60.8228 L78,60.8228 L78,66.8228 Z M84,66.8228 L90,66.8228 L90,60.8228 L84,60.8228 L84,66.8228 Z M84,60.8228 L90,60.8228 L90,54.8228 L84,54.8228 L84,60.8228 Z M84,54.8228 L90,54.8228 L90,48.8228 L84,48.8228 L84,54.8228 Z M84,48.8228 L90,48.8228 L90,42.8228 L84,42.8228 L84,48.8228 Z M84,42.8228 L90,42.8228 L90,36.8228 L84,36.8228 L84,42.8228 Z M84,36.8228 L90,36.8228 L90,30.8228 L84,30.8228 L84,36.8228 Z M84,30.8228 L90,30.8228 L90,24.8228 L84,24.8228 L84,30.8228 Z M84,24.8228 L90,24.8228 L90,18.8228 L84,18.8228 L84,24.8228 Z M84,18.8228 L90,18.8228 L90,12.8228 L84,12.8228 L84,18.8228 Z M84,12.8228 L90,12.8228 L90,6.8228 L84,6.8228 L84,12.8228 Z M84,6.8228 L90,6.8228 L90,0.8228 L84,0.8228 L84,6.8228 Z M78,6.8228 L84,6.8228 L84,0.8228 L78,0.8228 L78,6.8228 Z M72,6.8228 L78,6.8228 L78,0.8228 L72,0.8228 L72,6.8228 Z M66,6.8228 L72,6.8228 L72,0.8228 L66,0.8228 L66,6.8228 Z M60,6.8228 L66,6.8228 L66,0.8228 L60,0.8228 L60,6.8228 Z M54,6.8228 L60,6.8228 L60,0.8228 L54,0.8228 L54,6.8228 Z M48,6.8228 L54,6.8228 L54,0.8228 L48,0.8228 L48,6.8228 Z M42,6.8228 L48,6.8228 L48,0.8228 L42,0.8228 L42,6.8228 Z M36,6.8228 L42,6.8228 L42,0.8228 L36,0.8228 L36,6.8228 Z M30,6.8228 L36,6.8228 L36,0.8228 L30,0.8228 L30,6.8228 Z M24,6.8228 L30,6.8228 L30,0.8228 L24,0.8228 L24,6.8228 Z M18,6.8228 L24,6.8228 L24,0.8228 L18,0.8228 L18,6.8228 Z M12,6.8228 L18,6.8228 L18,0.8228 L12,0.8228 L12,6.8228 Z M6,6.8228 L12,6.8228 L12,0.8228 L6,0.8228 L6,6.8228 Z M0,6.8228 L6,6.8228 L6,0.8228 L0,0.8228 L0,6.8228 Z M0,12.8228 L6,12.8228 L6,6.8228 L0,6.8228 L0,12.8228 Z M0,18.8228 L6,18.8228 L6,12.8228 L0,12.8228 L0,18.8228 Z M0,24.8228 L6,24.8228 L6,18.8228 L0,18.8228 L0,24.8228 Z M0,30.8228 L6,30.8228 L6,24.8228 L0,24.8228 L0,30.8228 Z M0,36.8228 L6,36.8228 L6,30.8228 L0,30.8228 L0,36.8228 Z M0,42.8228 L6,42.8228 L6,36.8228 L0,36.8228 L0,42.8228 Z M0,48.8228 L6,48.8228 L6,42.8228 L0,42.8228 L0,48.8228 Z M0,54.8228 L6,54.8228 L6,48.8228 L0,48.8228 L0,54.8228 Z M0,60.8228 L6,60.8228 L6,54.8228 L0,54.8228 L0,60.8228 Z M0,66.8228 L6,66.8228 L6,60.8228 L0,60.8228 L0,66.8228 Z M6,66.8228 L12,66.8228 L12,60.8228 L6,60.8228 L6,66.8228 Z M12,66.8228 L18,66.8228 L18,60.8228 L12,60.8228 L12,66.8228 Z" fill="#000000" sketch:type="MSShapeGroup"></path></g></svg>