<svg height='100px' width='100px'  fill="#000000" xmlns="http://www.w3.org/2000/svg" xmlns:xlink="http://www.w3.org/1999/xlink" version="1.1" x="0px" y="0px" viewBox="0 0 100 100" style="enable-background:new 0 0 100 100;" xml:space="preserve"><style type="text/css">
	.st0{fill:#000000;}
</style><path class="st0" d="M71.25,32.66v2.5v2.5v2.5v2.5v2.5v2.5v2.5v2.5v2.5v2.5v2.5v2.5v2.5h-2.5v-2.5v-2.5v-2.5v-2.5v-2.5v-2.5v-2.5  v-2.5v-2.5v-2.5v-2.5v-2.5v-2.5H71.25z M61.25,32.66v2.5v2.5v2.5v2.5v2.5v2.5h2.5v-2.5v-2.5v-2.5v-2.5v-2.5v-2.5h2.5h2.5v-2.5h-2.5  h-2.5v-2.5h-2.5v2.5V32.66z M66.25,67.66v2.5v2.5h2.5v-2.5v-2.5v-2.5h-2.5V67.66z M63.75,75.16h-2.5h-2.5h-2.5h-2.5h-2.5h-2.5h-2.5  h-2.5v-2.5h-2.5v2.5v2.5h2.5h2.5h2.5h2.5h2.5h2.5h2.5h2.5h2.5h2.5v-2.5v-2.5h-2.5V75.16z M53.75,22.66v-2.5h-2.5h-2.5v2.5h2.5H53.75  z M53.75,27.66v2.5v2.5v2.5v2.5v2.5v2.5v2.5v2.5h2.5v-2.5v-2.5v-2.5v-2.5v-2.5v-2.5v-2.5v-2.5h2.5h2.5v-2.5h-2.5h-2.5v-2.5h-2.5v2.5  V27.66z M46.25,25.16v2.5v2.5v2.5v2.5v2.5v2.5v2.5v2.5v2.5h2.5v-2.5v-2.5v-2.5v-2.5v-2.5v-2.5v-2.5v-2.5v-2.5v-2.5h-2.5h-2.5h-2.5  v2.5h2.5H46.25z M38.75,50.16v2.5v2.5v2.5h2.5v-2.5v-2.5v-2.5v-2.5v-2.5v-2.5v-2.5v-2.5v-2.5v-2.5v-2.5v-2.5v-2.5h-2.5v2.5v2.5v2.5  v2.5v2.5v2.5v2.5v2.5v2.5h-2.5v2.5H38.75z M31.25,47.66h2.5h2.5v-2.5h-2.5h-2.5h-2.5v2.5v2.5v2.5h2.5v-2.5V47.66z M31.25,52.66v2.5  h2.5v-2.5H31.25z M36.25,55.16h-2.5v2.5v2.5h2.5v-2.5V55.16z M38.75,62.66v-2.5h-2.5v2.5v2.5v2.5h2.5v-2.5V62.66z M41.25,67.66h-2.5  v2.5v2.5h2.5v-2.5V67.66z"></path></svg>