<svg height='100px' width='100px'  fill="#000000" xmlns="http://www.w3.org/2000/svg" xmlns:xlink="http://www.w3.org/1999/xlink" xmlns:sketch="http://www.bohemiancoding.com/sketch/ns" viewBox="0 0 90 64" version="1.1" x="0px" y="0px"><title>Rectangle-71-Copy-7</title><desc>Created with Sketch.</desc><g stroke="none" stroke-width="1" fill="none" fill-rule="evenodd" sketch:type="MSPage"><path d="M42.3529412,58.2352941 L47.6470588,58.2352941 L47.6470588,63.5294118 L42.3529412,63.5294118 L42.3529412,58.2352941 L42.3529412,58.2352941 Z M47.6470588,52.9411765 L52.9411765,52.9411765 L52.9411765,58.2352941 L47.6470588,58.2352941 L47.6470588,52.9411765 L47.6470588,52.9411765 Z M52.9411765,47.6470588 L58.2352941,47.6470588 L58.2352941,52.9411765 L52.9411765,52.9411765 L52.9411765,47.6470588 L52.9411765,47.6470588 Z M58.2352941,47.6470588 L63.5294118,47.6470588 L63.5294118,52.9411765 L58.2352941,52.9411765 L58.2352941,47.6470588 L58.2352941,47.6470588 Z M63.5294118,47.6470588 L68.8235294,47.6470588 L68.8235294,52.9411765 L63.5294118,52.9411765 L63.5294118,47.6470588 L63.5294118,47.6470588 Z M68.8235294,47.6470588 L74.1176471,47.6470588 L74.1176471,52.9411765 L68.8235294,52.9411765 L68.8235294,47.6470588 L68.8235294,47.6470588 Z M74.1176471,47.6470588 L79.4117647,47.6470588 L79.4117647,52.9411765 L74.1176471,52.9411765 L74.1176471,47.6470588 L74.1176471,47.6470588 Z M79.4117647,47.6470588 L84.7058824,47.6470588 L84.7058824,52.9411765 L79.4117647,52.9411765 L79.4117647,47.6470588 L79.4117647,47.6470588 Z M79.4117647,0 L84.7058824,0 L84.7058824,5.29411765 L79.4117647,5.29411765 L79.4117647,0 L79.4117647,0 Z M84.7058824,31.7647059 L90,31.7647059 L90,37.0588235 L84.7058824,37.0588235 L84.7058824,31.7647059 L84.7058824,31.7647059 Z M84.7058824,26.4705882 L90,26.4705882 L90,31.7647059 L84.7058824,31.7647059 L84.7058824,26.4705882 L84.7058824,26.4705882 Z M84.7058824,21.1764706 L90,21.1764706 L90,26.4705882 L84.7058824,26.4705882 L84.7058824,21.1764706 L84.7058824,21.1764706 Z M84.7058824,15.8823529 L90,15.8823529 L90,21.1764706 L84.7058824,21.1764706 L84.7058824,15.8823529 L84.7058824,15.8823529 Z M84.7058824,37.0588235 L90,37.0588235 L90,42.3529412 L84.7058824,42.3529412 L84.7058824,37.0588235 L84.7058824,37.0588235 Z M84.7058824,42.3529412 L90,42.3529412 L90,47.6470588 L84.7058824,47.6470588 L84.7058824,42.3529412 L84.7058824,42.3529412 Z M37.0588235,52.9411765 L42.3529412,52.9411765 L42.3529412,58.2352941 L37.0588235,58.2352941 L37.0588235,52.9411765 L37.0588235,52.9411765 Z M31.7647059,47.6470588 L37.0588235,47.6470588 L37.0588235,52.9411765 L31.7647059,52.9411765 L31.7647059,47.6470588 L31.7647059,47.6470588 Z M26.4705882,47.6470588 L31.7647059,47.6470588 L31.7647059,52.9411765 L26.4705882,52.9411765 L26.4705882,47.6470588 L26.4705882,47.6470588 Z M21.1764706,47.6470588 L26.4705882,47.6470588 L26.4705882,52.9411765 L21.1764706,52.9411765 L21.1764706,47.6470588 L21.1764706,47.6470588 Z M15.8823529,47.6470588 L21.1764706,47.6470588 L21.1764706,52.9411765 L15.8823529,52.9411765 L15.8823529,47.6470588 L15.8823529,47.6470588 Z M10.5882353,47.6470588 L15.8823529,47.6470588 L15.8823529,52.9411765 L10.5882353,52.9411765 L10.5882353,47.6470588 L10.5882353,47.6470588 Z M5.29411765,47.6470588 L10.5882353,47.6470588 L10.5882353,52.9411765 L5.29411765,52.9411765 L5.29411765,47.6470588 L5.29411765,47.6470588 Z M0,42.3529412 L5.29411765,42.3529412 L5.29411765,47.6470588 L0,47.6470588 L0,42.3529412 L0,42.3529412 Z M0,37.0588235 L5.29411765,37.0588235 L5.29411765,42.3529412 L0,42.3529412 L0,37.0588235 L0,37.0588235 Z M0,31.7647059 L5.29411765,31.7647059 L5.29411765,37.0588235 L0,37.0588235 L0,31.7647059 L0,31.7647059 Z M0,26.4705882 L5.29411765,26.4705882 L5.29411765,31.7647059 L0,31.7647059 L0,26.4705882 L0,26.4705882 Z M0,21.1764706 L5.29411765,21.1764706 L5.29411765,26.4705882 L0,26.4705882 L0,21.1764706 L0,21.1764706 Z M0,15.8823529 L5.29411765,15.8823529 L5.29411765,21.1764706 L0,21.1764706 L0,15.8823529 L0,15.8823529 Z M0,10.5882353 L5.29411765,10.5882353 L5.29411765,15.8823529 L0,15.8823529 L0,10.5882353 L0,10.5882353 Z M0,5.29411765 L5.29411765,5.29411765 L5.29411765,10.5882353 L0,10.5882353 L0,5.29411765 L0,5.29411765 Z M84.7058824,5.29411765 L90,5.29411765 L90,10.5882353 L84.7058824,10.5882353 L84.7058824,5.29411765 L84.7058824,5.29411765 Z M84.7058824,10.5882353 L90,10.5882353 L90,15.8823529 L84.7058824,15.8823529 L84.7058824,10.5882353 L84.7058824,10.5882353 Z M74.1176471,0 L79.4117647,0 L79.4117647,5.29411765 L74.1176471,5.29411765 L74.1176471,0 L74.1176471,0 Z M68.8235294,0 L74.1176471,0 L74.1176471,5.29411765 L68.8235294,5.29411765 L68.8235294,0 L68.8235294,0 Z M5.29411765,0 L10.5882353,0 L10.5882353,5.29411765 L5.29411765,5.29411765 L5.29411765,0 L5.29411765,0 Z M10.5882353,0 L15.8823529,0 L15.8823529,5.29411765 L10.5882353,5.29411765 L10.5882353,0 L10.5882353,0 Z M15.8823529,0 L21.1764706,0 L21.1764706,5.29411765 L15.8823529,5.29411765 L15.8823529,0 L15.8823529,0 Z M21.1764706,0 L26.4705882,0 L26.4705882,5.29411765 L21.1764706,5.29411765 L21.1764706,0 L21.1764706,0 Z M26.4705882,0 L31.7647059,0 L31.7647059,5.29411765 L26.4705882,5.29411765 L26.4705882,0 L26.4705882,0 Z M31.7647059,0 L37.0588235,0 L37.0588235,5.29411765 L31.7647059,5.29411765 L31.7647059,0 L31.7647059,0 Z M37.0588235,0 L42.3529412,0 L42.3529412,5.29411765 L37.0588235,5.29411765 L37.0588235,0 L37.0588235,0 Z M42.3529412,0 L47.6470588,0 L47.6470588,5.29411765 L42.3529412,5.29411765 L42.3529412,0 L42.3529412,0 Z M47.6470588,0 L52.9411765,0 L52.9411765,5.29411765 L47.6470588,5.29411765 L47.6470588,0 L47.6470588,0 Z M52.9411765,0 L58.2352941,0 L58.2352941,5.29411765 L52.9411765,5.29411765 L52.9411765,0 L52.9411765,0 Z M58.2352941,0 L63.5294118,0 L63.5294118,5.29411765 L58.2352941,5.29411765 L58.2352941,0 L58.2352941,0 Z M63.5294118,0 L68.8235294,0 L68.8235294,5.29411765 L63.5294118,5.29411765 L63.5294118,0 L63.5294118,0 Z" fill="#000000" sketch:type="MSShapeGroup"></path></g></svg>