<svg height='100px' width='100px'  fill="#000000" xmlns="http://www.w3.org/2000/svg" xmlns:xlink="http://www.w3.org/1999/xlink" version="1.1" x="0px" y="0px" viewBox="0 0 100 100.001" enable-background="new 0 0 100 100.001" xml:space="preserve"><g><rect x="13.294" y="33.53" width="5.647" height="5.647"></rect><rect x="24.588" y="33.53" width="16.941" height="5.647"></rect><rect x="41.529" y="39.178" width="5.647" height="5.646"></rect><rect x="13.294" y="44.824" width="28.235" height="5.647"></rect><rect x="41.529" y="50.472" width="5.647" height="5.646"></rect><rect x="13.294" y="56.118" width="28.235" height="5.647"></rect><rect x="41.529" y="61.766" width="5.647" height="5.647"></rect><rect x="47.177" y="27.884" width="5.646" height="5.646"></rect><polygon points="52.823,22.236 52.823,27.884 92.354,27.884 92.354,67.413 64.117,67.413 64.117,73.06 52.823,73.06 52.823,78.707    47.177,78.707 47.177,73.06 35.883,73.06 35.883,67.413 7.646,67.413 7.646,27.884 47.177,27.884 47.177,22.236 2,22.236 2,84.354    41.529,84.354 41.529,90.001 58.471,90.001 58.471,84.354 98,84.354 98,22.236  "></polygon><rect x="58.471" y="33.53" width="28.235" height="5.647"></rect><rect x="52.823" y="39.178" width="5.647" height="5.646"></rect><rect x="58.471" y="44.824" width="28.235" height="5.647"></rect><rect x="52.823" y="50.472" width="5.647" height="5.646"></rect><rect x="58.471" y="56.118" width="28.235" height="5.647"></rect><rect x="52.823" y="61.766" width="5.647" height="5.647"></rect></g></svg>