<svg height='100px' width='100px'  fill="#000000" xmlns="http://www.w3.org/2000/svg" xmlns:xlink="http://www.w3.org/1999/xlink" version="1.1" x="0px" y="0px" viewBox="0 0 78 78" enable-background="new 0 0 78 78" xml:space="preserve"><title>Arrow Left</title><desc>Created with Sketch.</desc><g><polygon points="30,24 24,24 24,30 30,30 30,24  "></polygon><polygon points="36,18 30,18 30,24 36,24 36,18  "></polygon><polygon points="42,12 36,12 36,18 42,18 42,12  "></polygon><polygon points="30,54 30,48 24,48 24,54 30,54  "></polygon><polygon points="36,60 36,54 30,54 30,60 36,60  "></polygon><polygon points="42,66 42,60 36,60 36,66 42,66  "></polygon><path d="M60,36c-12,0-24,0-36,0v-6h-6v6h-6v6h6v6h6v-6c14,0,28,0,42,0v-6H60L60,36z"></path></g></svg>