<svg height='100px' width='100px'  fill="#000000" xmlns="http://www.w3.org/2000/svg" xmlns:xlink="http://www.w3.org/1999/xlink" version="1.1" x="0px" y="0px" viewBox="0 0 100 100" enable-background="new 0 0 100 100" xml:space="preserve"><path d="M32.295,26.07v-5.32h-5.32v-5.32H11.025v5.32h10.63v5.32h5.319v42.54h5.32V63.3h42.54v-5.32h5.32v-5.32h5.319V26.07H32.295z   M53.565,57.98v-5.32h-5.32v-5.32h-5.32v-5.32h5.32v5.32h5.32V31.39h5.319v15.95h5.32v-5.32h5.31v5.32h-5.31v5.32h-5.32v5.32H53.565  z M21.655,68.61h5.319v5.32h53.181v-5.32h5.319v10.64h-5.319v5.32H69.515v-5.32h-26.59v5.32h-10.63v-5.32h-10.64V68.61z"></path></svg>