<svg height='100px' width='100px'  fill="#000000" xmlns="http://www.w3.org/2000/svg" xmlns:xlink="http://www.w3.org/1999/xlink" version="1.1" x="0px" y="0px" viewBox="0 0 100 100" enable-background="new 0 0 100 100" xml:space="preserve"><path d="M32.391,36.705v-5.32h-5.32v-5.32H11.121v5.32h10.63v5.32h5.319v37.22h5.32v-5.31h42.54v-5.32h5.32v-5.32h5.319v-21.27  H32.391z M80.251,52.655h-5.32v5.32h-5.32v5.32h-37.22v-21.27h47.86V52.655z M48.341,20.745h-5.32v-10.63h10.64v5.31h5.32v-5.31  h10.63v10.63h-5.31v5.32h-5.32v5.32h-5.32v-5.32h-5.319V20.745z M21.751,73.925h5.319v5.32h53.181v-5.32h5.319v10.64h-5.319v5.32  H69.61v-5.32h-26.59v5.32h-10.63v-5.32h-10.64V73.925z"></path></svg>