<svg height='100px' width='100px'  fill="#000000" xmlns="http://www.w3.org/2000/svg" xmlns:xlink="http://www.w3.org/1999/xlink" version="1.1" x="0px" y="0px" viewBox="0 0 100 100" style="enable-background:new 0 0 100 100;" xml:space="preserve"><style type="text/css">
	.st0{fill:#000000;}
</style><path class="st0" d="M43.75,23.91h-2.5v-2.5h2.5h2.5v2.5H43.75z M46.25,28.91v2.5v2.5v2.5v2.5v2.5v2.5v2.5h2.5v-2.5v-2.5h2.5h2.5  v-2.5h-2.5h-2.5v-2.5v-2.5v-2.5v-2.5v-2.5v-2.5h-2.5v2.5V28.91z M61.25,41.41v-2.5h-2.5h-2.5v2.5h2.5H61.25z M53.75,46.41h2.5v-2.5  v-2.5h-2.5v2.5V46.41z M68.75,46.41v-2.5h-2.5v2.5H68.75z M68.75,46.41v2.5v2.5v2.5v2.5v2.5v2.5v2.5h2.5v-2.5v-2.5v-2.5v-2.5v-2.5  v-2.5v-2.5H68.75z M66.25,66.41v2.5v2.5h2.5v-2.5v-2.5v-2.5h-2.5V66.41z M63.75,73.91h-2.5h-2.5h-2.5h-2.5h-2.5h-2.5h-2.5h-2.5v-2.5  h-2.5v2.5v2.5h2.5h2.5h2.5h2.5h2.5h2.5h2.5h2.5h2.5h2.5v-2.5v-2.5h-2.5V73.91z M61.25,46.41h2.5v-2.5h2.5v-2.5h-2.5h-2.5v2.5V46.41z   M38.75,48.91v2.5v2.5v2.5h2.5v-2.5v-2.5v-2.5v-2.5v-2.5v-2.5v-2.5v-2.5v-2.5v-2.5v-2.5v-2.5v-2.5h-2.5v2.5v2.5v2.5v2.5v2.5v2.5v2.5  v2.5v2.5h-2.5v2.5H38.75z M31.25,46.41h2.5h2.5v-2.5h-2.5h-2.5h-2.5v2.5v2.5v2.5h2.5v-2.5V46.41z M31.25,51.41v2.5h2.5v-2.5H31.25z   M36.25,53.91h-2.5v2.5v2.5h2.5v-2.5V53.91z M38.75,61.41v-2.5h-2.5v2.5v2.5v2.5h2.5v-2.5V61.41z M41.25,66.41h-2.5v2.5v2.5h2.5  v-2.5V66.41z"></path></svg>