<svg height='100px' width='100px'  fill="#000000" xmlns="http://www.w3.org/2000/svg" xmlns:xlink="http://www.w3.org/1999/xlink" version="1.1" x="0px" y="0px" viewBox="0 0 100 100" style="enable-background:new 0 0 100 100;" xml:space="preserve"><style type="text/css">
	.st0{display:none;}
	.st1{display:inline;}
</style><g><g><rect x="74.8" y="71.7" width="6.2" height="6.2"></rect><polygon points="19,65.5 19,59.3 12.8,59.3 12.8,65.5 12.8,71.7 19,71.7   "></polygon><polygon points="19,53.1 19,59.3 25.2,59.3 25.2,53.1 25.2,46.9 19,46.9   "></polygon><polygon points="81,65.5 81,71.7 87.2,71.7 87.2,65.5 87.2,59.3 81,59.3   "></polygon><polygon points="87.2,53.1 87.2,59.3 93.5,59.3 93.5,53.1 93.5,46.9 87.2,46.9   "></polygon><polygon points="93.5,34.5 87.2,34.5 81,34.5 74.8,34.5 74.8,28.3 74.8,22.1 68.6,22.1 62.4,22.1 56.2,22.1 50,22.1 43.8,22.1     37.6,22.1 31.4,22.1 31.4,15.9 25.2,15.9 19,15.9 12.8,15.9 6.5,15.9 6.5,22.1 0.3,22.1 0.3,28.3 0.3,34.5 0.3,40.7 0.3,46.9     0.3,53.1 0.3,59.3 0.3,65.5 0.3,71.7 0.3,77.9 6.5,77.9 6.5,84.1 12.8,84.1 19,84.1 25.2,84.1 31.4,84.1 37.6,84.1 43.8,84.1     50,84.1 56.2,84.1 62.4,84.1 68.6,84.1 74.8,84.1 74.8,77.9 68.6,77.9 62.4,77.9 56.2,77.9 50,77.9 43.8,77.9 37.6,77.9     31.4,77.9 25.2,77.9 19,77.9 12.8,77.9 12.8,71.7 6.5,71.7 6.5,65.5 6.5,59.3 6.5,53.1 6.5,46.9 6.5,40.7 6.5,34.5 6.5,28.3     12.8,28.3 12.8,22.1 19,22.1 25.2,22.1 25.2,28.3 31.4,28.3 37.6,28.3 43.8,28.3 50,28.3 56.2,28.3 62.4,28.3 68.6,28.3     68.6,34.5 62.4,34.5 56.2,34.5 50,34.5 43.8,34.5 37.6,34.5 31.4,34.5 25.2,34.5 25.2,40.7 25.2,46.9 31.4,46.9 31.4,40.7     37.6,40.7 43.8,40.7 50,40.7 56.2,40.7 62.4,40.7 68.6,40.7 74.8,40.7 81,40.7 87.2,40.7 93.5,40.7 93.5,46.9 99.7,46.9     99.7,40.7 99.7,34.5   "></polygon></g></g><g class="st0"><g class="st1"><rect x="22.1" y="6.5" width="6.2" height="6.2"></rect><rect x="71.7" y="6.5" width="6.2" height="6.2"></rect><rect x="22.1" y="56.2" width="6.2" height="6.2"></rect><rect x="71.7" y="56.2" width="6.2" height="6.2"></rect><polygon points="77.9,62.4 77.9,68.6 71.7,68.6 65.5,68.6 59.3,68.6 53.1,68.6 46.9,68.6 40.7,68.6 34.5,68.6 28.3,68.6     22.1,68.6 22.1,62.4 15.9,62.4 15.9,68.6 15.9,74.8 22.1,74.8 28.3,74.8 34.5,74.8 40.7,74.8 46.9,74.8 46.9,81 46.9,87.2     46.9,93.5 46.9,99.7 53.1,99.7 53.1,93.5 53.1,87.2 53.1,81 53.1,74.8 59.3,74.8 65.5,74.8 71.7,74.8 77.9,74.8 84.1,74.8     84.1,68.6 84.1,62.4   "></polygon><polygon points="40.7,6.5 46.9,6.5 53.1,6.5 59.3,6.5 65.5,6.5 71.7,6.5 71.7,0.3 65.5,0.3 59.3,0.3 53.1,0.3 46.9,0.3 40.7,0.3     34.5,0.3 28.3,0.3 28.3,6.5 34.5,6.5   "></polygon><polygon points="59.3,25.2 59.3,31.4 59.3,37.6 59.3,43.8 59.3,50 65.5,50 65.5,43.8 65.5,37.6 65.5,31.4 65.5,25.2 65.5,19     59.3,19   "></polygon><polygon points="40.7,43.8 40.7,37.6 40.7,31.4 40.7,25.2 40.7,19 34.5,19 34.5,25.2 34.5,31.4 34.5,37.6 34.5,43.8 34.5,50     40.7,50   "></polygon><rect x="28.3" y="12.8" width="6.2" height="6.2"></rect><rect x="65.5" y="12.8" width="6.2" height="6.2"></rect><rect x="28.3" y="50" width="6.2" height="6.2"></rect><rect x="65.5" y="50" width="6.2" height="6.2"></rect></g></g><g class="st0"><g class="st1"><rect x="62.4" y="9.6" width="6.2" height="6.2"></rect><rect x="25.2" y="9.6" width="6.2" height="6.2"></rect><rect x="43.8" y="9.6" width="6.2" height="6.2"></rect><rect x="31.4" y="3.4" width="6.2" height="6.2"></rect><rect x="50" y="3.4" width="6.2" height="6.2"></rect><rect x="68.6" y="3.4" width="6.2" height="6.2"></rect><polygon points="62.4,90.4 56.2,90.4 50,90.4 43.8,90.4 37.6,90.4 31.4,90.4 25.2,90.4 25.2,96.6 31.4,96.6 37.6,96.6 43.8,96.6     50,96.6 56.2,96.6 62.4,96.6 68.6,96.6 74.8,96.6 74.8,90.4 68.6,90.4   "></polygon><polygon points="93.5,40.7 93.5,46.9 93.5,53.1 93.5,59.3 93.5,65.5 99.7,65.5 99.7,59.3 99.7,53.1 99.7,46.9 99.7,40.7   "></polygon><path d="M81,65.5v-6.2v-6.2v-6.2v-6.2h6.2h6.2v-6.2h-6.2H81v-6.2v-6.2h-6.2h-6.2h-6.2h-6.2H50h-6.2h-6.2h-6.2h-6.2H19v6.2v6.2v6.2    v6.2v6.2v6.2v6.2v6.2v6.2h-6.2H6.5H0.3v6.2h6.2h6.2v6.2H19h6.2v-6.2h6.2h6.2h6.2H50h6.2h6.2h6.2h6.2v6.2H81h6.2v-6.2h6.2h6.2v-6.2    h-6.2h-6.2H81v-6.2h6.2h6.2v-6.2h-6.2H81z M74.8,77.9h-6.2h-6.2h-6.2H50h-6.2h-6.2h-6.2h-6.2v-6.2v-6.2v-6.2v-6.2v-6.2v-6.2v-6.2    v-6.2h6.2h6.2h6.2H50h6.2h6.2h6.2h6.2v6.2v6.2v6.2v6.2v6.2v6.2v6.2V77.9z"></path></g></g><g class="st0"><g class="st1"><polygon points="93.5,19 93.5,25.2 93.5,31.4 87.2,31.4 81,31.4 74.8,31.4 68.6,31.4 62.4,31.4 56.2,31.4 50,31.4 43.8,31.4     37.6,31.4 31.4,31.4 25.2,31.4 19,31.4 12.7,31.4 6.5,31.4 6.5,25.2 6.5,19 0.3,19 0.3,25.2 0.3,31.4 0.3,37.6 0.3,43.8 0.3,50     0.3,56.2 0.3,62.4 0.3,68.6 0.3,74.8 0.3,81 0.3,87.2 6.5,87.2 6.5,81 6.5,74.8 6.5,68.6 6.5,62.4 6.5,56.2 6.5,50 6.5,43.8     6.5,37.6 12.7,37.6 19,37.6 25.2,37.6 31.4,37.6 37.6,37.6 43.8,37.6 50,37.6 56.2,37.6 62.4,37.6 68.6,37.6 74.8,37.6 81,37.6     87.2,37.6 93.5,37.6 93.5,43.8 93.5,50 93.5,56.2 93.5,62.4 93.5,68.6 93.5,74.8 93.5,81 93.5,87.2 99.7,87.2 99.7,81 99.7,74.8     99.7,68.6 99.7,62.4 99.7,56.2 99.7,50 99.7,43.8 99.7,37.6 99.7,31.4 99.7,25.2 99.7,19   "></polygon><path d="M74.8,43.8h-6.2h-6.2h-6.2V50H50v6.2v6.2v6.2h6.2h6.2h6.2v6.2h-6.2h-6.2V81h6.2h6.2h6.2v-6.2H81v-6.2v-6.2v-6.2V50h-6.2    V43.8z M68.6,56.2v6.2h-6.2v-6.2V50h6.2V56.2z"></path><polygon points="37.6,68.6 37.6,62.4 37.6,56.2 37.6,50 37.6,43.8 31.4,43.8 25.2,43.8 25.2,50 19,50 19,56.2 25.2,56.2     25.2,62.4 25.2,68.6 25.2,74.8 19,74.8 19,81 25.2,81 31.4,81 37.6,81 43.8,81 43.8,74.8 37.6,74.8   "></polygon><polygon points="81,87.2 74.8,87.2 68.6,87.2 62.4,87.2 56.2,87.2 50,87.2 43.8,87.2 37.6,87.2 31.4,87.2 25.2,87.2 19,87.2     12.7,87.2 6.5,87.2 6.5,93.5 12.7,93.5 19,93.5 25.2,93.5 31.4,93.5 37.6,93.5 43.8,93.5 50,93.5 56.2,93.5 62.4,93.5 68.6,93.5     74.8,93.5 81,93.5 87.2,93.5 93.5,93.5 93.5,87.2 87.2,87.2   "></polygon><polygon points="19,19 19,25.2 25.2,25.2 31.4,25.2 31.4,19 37.6,19 43.8,19 50,19 56.2,19 62.4,19 68.6,19 68.6,25.2 74.8,25.2     81,25.2 81,19 87.2,19 93.5,19 93.5,12.8 87.2,12.8 81,12.8 81,6.5 74.8,6.5 68.6,6.5 68.6,12.8 62.4,12.8 56.2,12.8 50,12.8     43.8,12.8 37.6,12.8 31.4,12.8 31.4,6.5 25.2,6.5 19,6.5 19,12.8 12.7,12.8 6.5,12.8 6.5,19 12.7,19   "></polygon></g></g><g class="st0"><g class="st1"><polygon points="93.5,22.1 93.5,28.3 87.2,28.3 87.2,34.5 93.5,34.5 93.5,40.7 93.5,46.9 93.5,53.1 93.5,59.3 93.5,65.5     93.5,71.7 87.2,71.7 87.2,77.9 81,77.9 74.8,77.9 68.6,77.9 62.4,77.9 56.2,77.9 50,77.9 43.8,77.9 37.6,77.9 31.4,77.9     25.2,77.9 19,77.9 12.7,77.9 12.7,71.7 6.5,71.7 6.5,65.5 6.5,59.3 6.5,53.1 6.5,46.9 6.5,40.7 6.5,34.5 12.7,34.5 12.7,28.3     6.5,28.3 6.5,22.1 0.3,22.1 0.3,28.3 0.3,34.5 0.3,40.7 0.3,46.9 0.3,53.1 0.3,59.3 0.3,65.5 0.3,71.7 0.3,77.9 6.5,77.9     6.5,84.1 12.7,84.1 19,84.1 25.2,84.1 31.4,84.1 37.6,84.1 43.8,84.1 50,84.1 56.2,84.1 62.4,84.1 68.6,84.1 74.8,84.1 81,84.1     87.2,84.1 93.5,84.1 93.5,77.9 99.7,77.9 99.7,71.7 99.7,65.5 99.7,59.3 99.7,53.1 99.7,46.9 99.7,40.7 99.7,34.5 99.7,28.3     99.7,22.1   "></polygon><rect x="68.6" y="53.1" width="6.2" height="6.2"></rect><rect x="25.2" y="53.1" width="6.2" height="6.2"></rect><polygon points="50,59.3 56.2,59.3 56.2,53.1 50,53.1 43.8,53.1 43.8,59.3   "></polygon><polygon points="37.6,53.1 43.8,53.1 43.8,46.9 37.6,46.9 31.4,46.9 31.4,53.1   "></polygon><polygon points="68.6,53.1 68.6,46.9 62.4,46.9 56.2,46.9 56.2,53.1 62.4,53.1   "></polygon><polygon points="25.2,46.9 31.4,46.9 31.4,40.7 25.2,40.7 19,40.7 19,46.9   "></polygon><polygon points="81,46.9 81,40.7 74.8,40.7 68.6,40.7 68.6,46.9 74.8,46.9   "></polygon><rect x="19" y="59.3" width="6.2" height="6.2"></rect><rect x="74.8" y="59.3" width="6.2" height="6.2"></rect><rect x="12.7" y="65.5" width="6.2" height="6.2"></rect><rect x="81" y="65.5" width="6.2" height="6.2"></rect><rect x="12.7" y="34.5" width="6.2" height="6.2"></rect><rect x="81" y="34.5" width="6.2" height="6.2"></rect><polygon points="19,22.1 25.2,22.1 31.4,22.1 37.6,22.1 43.8,22.1 50,22.1 56.2,22.1 62.4,22.1 68.6,22.1 74.8,22.1 81,22.1     87.2,22.1 93.5,22.1 93.5,15.9 87.2,15.9 81,15.9 74.8,15.9 68.6,15.9 62.4,15.9 56.2,15.9 50,15.9 43.8,15.9 37.6,15.9     31.4,15.9 25.2,15.9 19,15.9 12.7,15.9 6.5,15.9 6.5,22.1 12.7,22.1   "></polygon></g></g><g class="st0"><g class="st1"><polygon points="6.5,81 6.5,74.8 6.5,68.6 6.5,62.4 6.5,56.2 6.5,50 6.5,43.8 6.5,37.6 6.5,31.4 6.5,25.2 6.5,19 0.3,19 0.3,25.2     0.3,31.4 0.3,37.6 0.3,43.8 0.3,50 0.3,56.2 0.3,62.4 0.3,68.6 0.3,74.8 0.3,81 0.3,87.2 0.3,93.5 6.5,93.5 6.5,87.2   "></polygon><polygon points="12.7,25.2 12.7,31.4 12.7,37.6 12.7,43.8 12.7,50 12.7,56.2 12.7,62.4 12.7,68.6 12.7,74.8 12.7,81 19,81     19,74.8 19,68.6 19,62.4 19,56.2 19,50 19,43.8 19,37.6 19,31.4 19,25.2 19,19 19,12.7 19,6.5 12.7,6.5 12.7,12.7 6.5,12.7     6.5,19 12.7,19   "></polygon><polygon points="93.5,19 93.5,25.2 93.5,31.4 93.5,37.6 93.5,43.8 93.5,50 93.5,56.2 93.5,62.4 93.5,68.6 93.5,74.8 93.5,81     93.5,87.2 93.5,93.5 99.7,93.5 99.7,87.2 99.7,81 99.7,74.8 99.7,68.6 99.7,62.4 99.7,56.2 99.7,50 99.7,43.8 99.7,37.6     99.7,31.4 99.7,25.2 99.7,19   "></polygon><path d="M68.6,25.2h-6.2h-6.2H50v6.2v6.2v6.2h6.2h6.2h6.2h6.2H81v-6.2v-6.2v-6.2h-6.2H68.6z M74.8,37.6h-6.2h-6.2h-6.2v-6.2h6.2    h6.2h6.2V37.6z"></path><rect x="50" y="74.8" width="6.2" height="6.2"></rect><rect x="62.4" y="74.8" width="6.2" height="6.2"></rect><rect x="74.8" y="74.8" width="6.2" height="6.2"></rect><rect x="50" y="62.4" width="6.2" height="6.2"></rect><rect x="62.4" y="62.4" width="6.2" height="6.2"></rect><rect x="74.8" y="62.4" width="6.2" height="6.2"></rect><rect x="50" y="50" width="6.2" height="6.2"></rect><rect x="62.4" y="50" width="6.2" height="6.2"></rect><rect x="74.8" y="50" width="6.2" height="6.2"></rect><polygon points="81,93.5 74.8,93.5 68.6,93.5 62.4,93.5 56.2,93.5 50,93.5 43.8,93.5 37.6,93.5 31.4,93.5 25.2,93.5 19,93.5     12.7,93.5 6.5,93.5 6.5,99.7 12.7,99.7 19,99.7 25.2,99.7 31.4,99.7 37.6,99.7 43.8,99.7 50,99.7 56.2,99.7 62.4,99.7 68.6,99.7     74.8,99.7 81,99.7 87.2,99.7 93.5,99.7 93.5,93.5 87.2,93.5   "></polygon><polygon points="31.4,6.5 37.6,6.5 37.6,0.3 31.4,0.3 25.2,0.3 19,0.3 19,6.5 25.2,6.5   "></polygon><polygon points="25.2,81 19,81 19,87.2 25.2,87.2 31.4,87.2 37.6,87.2 37.6,81 31.4,81   "></polygon><polygon points="37.6,19 37.6,25.2 37.6,31.4 37.6,37.6 37.6,43.8 37.6,50 37.6,56.2 37.6,62.4 37.6,68.6 37.6,74.8 37.6,81     43.8,81 43.8,74.8 43.8,68.6 43.8,62.4 43.8,56.2 43.8,50 43.8,43.8 43.8,37.6 43.8,31.4 43.8,25.2 43.8,19 50,19 56.2,19     62.4,19 68.6,19 74.8,19 81,19 87.2,19 93.5,19 93.5,12.7 87.2,12.7 81,12.7 74.8,12.7 68.6,12.7 62.4,12.7 56.2,12.7 50,12.7     43.8,12.7 43.8,6.5 37.6,6.5 37.6,12.7   "></polygon></g></g><g class="st0"><g class="st1"><polygon points="68.6,93.5 62.4,93.5 56.2,93.5 50,93.5 43.8,93.5 37.6,93.5 31.4,93.5 25.2,93.5 19,93.5 19,99.7 25.2,99.7     31.4,99.7 37.6,99.7 43.8,99.7 50,99.7 56.2,99.7 62.4,99.7 68.6,99.7 74.8,99.7 81,99.7 81,93.5 74.8,93.5   "></polygon><polygon points="31.4,6.5 37.6,6.5 43.8,6.5 50,6.5 56.2,6.5 62.4,6.5 68.6,6.5 74.8,6.5 81,6.5 81,0.3 74.8,0.3 68.6,0.3     62.4,0.3 56.2,0.3 50,0.3 43.8,0.3 37.6,0.3 31.4,0.3 25.2,0.3 19,0.3 19,6.5 25.2,6.5   "></polygon><path d="M37.6,31.4h6.2H50h6.2h6.2h6.2h6.2v-6.2V19v-6.2h-6.2h-6.2h-6.2H50h-6.2h-6.2h-6.2h-6.2V19v6.2v6.2h6.2H37.6z M68.6,19    v6.2h-6.2V19H68.6z M56.2,19v6.2H50V19H56.2z M43.8,19v6.2h-6.2V19H43.8z"></path><polygon points="25.2,50 25.2,56.2 25.2,62.4 31.4,62.4 37.6,62.4 37.6,56.2 37.6,50 31.4,50   "></polygon><polygon points="43.8,50 43.8,56.2 43.8,62.4 50,62.4 56.2,62.4 56.2,56.2 56.2,50 50,50   "></polygon><polygon points="62.4,50 62.4,56.2 62.4,62.4 68.6,62.4 74.8,62.4 74.8,56.2 74.8,50 68.6,50   "></polygon><polygon points="25.2,68.6 25.2,74.8 25.2,81 31.4,81 37.6,81 37.6,74.8 37.6,68.6 31.4,68.6   "></polygon><polygon points="43.8,68.6 43.8,74.8 43.8,81 50,81 56.2,81 56.2,74.8 56.2,68.6 50,68.6   "></polygon><polygon points="62.4,68.6 62.4,74.8 62.4,81 68.6,81 74.8,81 74.8,74.8 74.8,68.6 68.6,68.6   "></polygon><polygon points="81,6.5 81,12.7 81,19 81,25.2 81,31.4 81,37.6 74.8,37.6 68.6,37.6 62.4,37.6 56.2,37.6 50,37.6 43.8,37.6     37.6,37.6 31.4,37.6 25.2,37.6 19,37.6 19,31.4 19,25.2 19,19 19,12.7 19,6.5 12.8,6.5 12.8,12.7 12.8,19 12.8,25.2 12.8,31.4     12.8,37.6 12.8,43.8 12.8,50 12.8,56.2 12.8,62.4 12.8,68.6 12.8,74.8 12.8,81 12.8,87.2 12.8,93.5 19,93.5 19,87.2 19,81     19,74.8 19,68.6 19,62.4 19,56.2 19,50 19,43.8 25.2,43.8 31.4,43.8 37.6,43.8 43.8,43.8 50,43.8 56.2,43.8 62.4,43.8 68.6,43.8     74.8,43.8 81,43.8 81,50 81,56.2 81,62.4 81,68.6 81,74.8 81,81 81,87.2 81,93.5 87.2,93.5 87.2,87.2 87.2,81 87.2,74.8     87.2,68.6 87.2,62.4 87.2,56.2 87.2,50 87.2,43.8 87.2,37.6 87.2,31.4 87.2,25.2 87.2,19 87.2,12.7 87.2,6.5   "></polygon></g></g><g class="st0"><g class="st1"><rect x="74.8" y="84.1" width="6.2" height="6.2"></rect><rect x="68.6" y="9.6" width="6.2" height="6.2"></rect><polygon points="81,77.9 81,84.1 87.2,84.1 87.2,77.9 87.2,71.7 81,71.7   "></polygon><polygon points="87.2,65.5 87.2,71.7 93.5,71.7 93.5,65.5 93.5,59.3 87.2,59.3   "></polygon><path d="M93.5,46.9h-6.2v-6.2v-6.2v-6.2v-6.2H81v-6.2h-6.2v6.2h-6.2h-6.2v-6.2V9.6h6.2V3.4h-6.2h-6.2H50h-6.2h-6.2h-6.2h-6.2v6.2    H19h-6.2v6.2v6.2v6.2H6.5v6.2H0.3v6.2v6.2v6.2v6.2v6.2v6.2v6.2v6.2v6.2h6.2v6.2h6.2H19h6.2h6.2h6.2h6.2H50h6.2h6.2h6.2h6.2v-6.2    h-6.2h-6.2h-6.2H50h-6.2h-6.2h-6.2h-6.2H19h-6.2v-6.2H6.5v-6.2v-6.2v-6.2v-6.2v-6.2v-6.2v-6.2h6.2v6.2v6.2v6.2v6.2v6.2v6.2v6.2H19    v-6.2v-6.2h6.2v-6.2v-6.2H19v-6.2v-6.2v-6.2v-6.2v-6.2v-6.2v-6.2h6.2v6.2v6.2v6.2v6.2v6.2v6.2v6.2h6.2v-6.2h6.2h6.2H50h6.2h6.2    h6.2h6.2H81h6.2h6.2v6.2h6.2v-6.2v-6.2H93.5z M74.8,46.9h-6.2h-6.2h-6.2H50h-6.2h-6.2h-6.2v-6.2v-6.2v-6.2v-6.2v-6.2V9.6h6.2h6.2    H50h6.2v6.2v6.2v6.2h6.2h6.2h6.2H81v6.2v6.2v6.2H74.8z"></path></g></g><g class="st0"><g class="st1"><polygon points="15.9,53.1 22.1,53.1 22.1,46.9 15.9,46.9 15.9,40.7 15.9,34.5 9.6,34.5 9.6,40.7 9.6,46.9 9.6,53.1 9.6,59.3     9.6,65.5 15.9,65.5 15.9,59.3   "></polygon><rect x="40.7" y="53.1" width="6.2" height="6.2"></rect><polygon points="84.1,34.5 84.1,40.7 84.1,46.9 77.9,46.9 77.9,53.1 84.1,53.1 84.1,59.3 84.1,65.5 90.4,65.5 90.4,59.3     90.4,53.1 90.4,46.9 90.4,40.7 90.4,34.5   "></polygon><polygon points="22.1,28.3 22.1,22.1 15.9,22.1 15.9,28.3 15.9,34.5 22.1,34.5   "></polygon><polygon points="22.1,65.5 15.9,65.5 15.9,71.7 15.9,77.9 22.1,77.9 22.1,71.7   "></polygon><polygon points="46.9,34.5 46.9,40.7 46.9,46.9 46.9,53.1 53.1,53.1 53.1,46.9 53.1,40.7 53.1,34.5 53.1,28.3 46.9,28.3   "></polygon><polygon points="53.1,84.1 53.1,77.9 46.9,77.9 46.9,84.1 40.7,84.1 34.5,84.1 34.5,90.4 40.7,90.4 46.9,90.4 53.1,90.4     59.3,90.4 65.5,90.4 65.5,84.1 59.3,84.1   "></polygon><polygon points="39.9,22.1 46.1,22.1 46.1,15.9 46.9,15.9 52.4,15.9 52.4,22.1 58.6,22.1 58.6,15.9 59.3,15.9 65.5,15.9 65.5,9.6     59.3,9.6 53.1,9.6 46.9,9.6 40.7,9.6 34.5,9.6 34.5,15.9 39.9,15.9   "></polygon><polygon points="77.9,34.5 84.1,34.5 84.1,28.3 84.1,22.1 77.9,22.1 77.9,28.3   "></polygon><polygon points="77.9,71.7 77.9,77.9 84.1,77.9 84.1,71.7 84.1,65.5 77.9,65.5   "></polygon><rect x="34.5" y="59.3" width="6.2" height="6.2"></rect><rect x="28.3" y="65.5" width="6.2" height="6.2"></rect><polygon points="28.3,77.9 22.1,77.9 22.1,84.1 28.3,84.1 34.5,84.1 34.5,77.9   "></polygon><polygon points="34.5,22.1 34.5,15.9 28.3,15.9 22.1,15.9 22.1,22.1 28.3,22.1   "></polygon><polygon points="65.5,77.9 65.5,84.1 71.7,84.1 77.9,84.1 77.9,77.9 71.7,77.9   "></polygon><polygon points="71.7,22.1 77.9,22.1 77.9,15.9 71.7,15.9 65.5,15.9 65.5,22.1   "></polygon></g></g><g class="st0"><g class="st1"><polygon points="19,81 25.2,81 25.2,74.8 19,74.8 19,68.6 19,62.4 25.2,62.4 25.2,56.2 19,56.2 19,50 19,43.8 25.2,43.8     25.2,37.6 19,37.6 19,31.4 19,25.2 25.2,25.2 25.2,19 19,19 19,12.8 19,6.5 12.8,6.5 12.8,12.8 12.8,19 6.5,19 6.5,25.2     12.8,25.2 12.8,31.4 12.8,37.6 6.5,37.6 6.5,43.8 12.8,43.8 12.8,50 12.8,56.2 6.5,56.2 6.5,62.4 12.8,62.4 12.8,68.6 12.8,74.8     6.5,74.8 6.5,81 12.8,81 12.8,87.3 12.8,93.5 19,93.5 19,87.3   "></polygon><polygon points="56.2,74.8 50,74.8 50,81 56.2,81 62.4,81 68.6,81 68.6,74.8 62.4,74.8   "></polygon><polygon points="43.8,43.8 50,43.8 56.2,43.8 62.4,43.8 68.6,43.8 68.6,37.6 62.4,37.6 56.2,37.6 50,37.6 43.8,37.6 37.6,37.6     31.4,37.6 31.4,43.8 37.6,43.8   "></polygon><polygon points="43.8,31.4 50,31.4 56.2,31.4 62.4,31.4 68.6,31.4 68.6,25.2 68.6,19 62.4,19 56.2,19 50,19 43.8,19 37.6,19     31.4,19 31.4,25.2 31.4,31.4 37.6,31.4   "></polygon><polygon points="87.2,6.5 87.2,12.8 87.2,19 87.2,25.2 87.2,31.4 87.2,37.6 87.2,43.8 87.2,50 87.2,56.2 87.2,62.4 87.2,68.6     87.2,74.8 87.2,81 87.2,87.3 87.2,93.5 93.5,93.5 93.5,87.3 93.5,81 93.5,74.8 93.5,68.6 93.5,62.4 93.5,56.2 93.5,50 93.5,43.8     93.5,37.6 93.5,31.4 93.5,25.2 93.5,19 93.5,12.8 93.5,6.5   "></polygon><polygon points="81,87.3 81,81 81,74.8 81,68.6 81,62.4 81,56.2 81,50 81,43.8 81,37.6 81,31.4 81,25.2 81,19 81,12.8 81,6.5     87.2,6.5 87.2,0.3 81,0.3 74.8,0.3 68.6,0.3 62.4,0.3 56.2,0.3 50,0.3 43.8,0.3 37.6,0.3 31.4,0.3 25.2,0.3 19,0.3 19,6.5     25.2,6.5 31.4,6.5 37.6,6.5 43.8,6.5 50,6.5 56.2,6.5 62.4,6.5 68.6,6.5 74.8,6.5 74.8,12.8 74.8,19 74.8,25.2 74.8,31.4     74.8,37.6 74.8,43.8 74.8,50 74.8,56.2 74.8,62.4 74.8,68.6 74.8,74.8 74.8,81 74.8,87.3 74.8,93.5 68.6,93.5 62.4,93.5     56.2,93.5 50,93.5 43.8,93.5 37.6,93.5 31.4,93.5 25.2,93.5 19,93.5 19,99.7 25.2,99.7 31.4,99.7 37.6,99.7 43.8,99.7 50,99.7     56.2,99.7 62.4,99.7 68.6,99.7 74.8,99.7 81,99.7 87.2,99.7 87.2,93.5 81,93.5   "></polygon></g></g><g class="st0"><g class="st1"><polygon points="15.9,81 15.9,74.8 15.9,68.6 15.9,62.4 15.9,56.2 15.9,50 15.9,43.8 15.9,37.6 15.9,31.4 15.9,25.2 15.9,19     15.9,12.8 9.6,12.8 9.6,19 9.6,25.2 9.6,31.4 9.6,37.6 9.6,43.8 9.6,50 9.6,56.2 9.6,62.4 9.6,68.6 9.6,74.8 9.6,81 9.6,87.3     9.6,93.5 15.9,93.5 15.9,87.3   "></polygon><polygon points="71.7,93.5 65.5,93.5 59.3,93.5 53.1,93.5 46.9,93.5 40.7,93.5 34.5,93.5 28.3,93.5 22.1,93.5 15.9,93.5     15.9,99.7 22.1,99.7 28.3,99.7 34.5,99.7 40.7,99.7 46.9,99.7 53.1,99.7 59.3,99.7 65.5,99.7 71.7,99.7 77.9,99.7 84.1,99.7     84.1,93.5 77.9,93.5   "></polygon><polygon points="46.9,74.8 53.1,74.8 59.3,74.8 65.5,74.8 65.5,68.6 59.3,68.6 53.1,68.6 46.9,68.6 40.7,68.6 34.5,68.6     34.5,74.8 40.7,74.8   "></polygon><polygon points="46.9,62.4 53.1,62.4 59.3,62.4 65.5,62.4 65.5,56.2 59.3,56.2 53.1,56.2 46.9,56.2 40.7,56.2 34.5,56.2     34.5,62.4 40.7,62.4   "></polygon><polygon points="46.9,50 53.1,50 59.3,50 65.5,50 65.5,43.8 59.3,43.8 53.1,43.8 46.9,43.8 40.7,43.8 34.5,43.8 34.5,50 40.7,50       "></polygon><polygon points="46.9,37.6 53.1,37.6 53.1,31.4 46.9,31.4 40.7,31.4 34.5,31.4 34.5,37.6 40.7,37.6   "></polygon><path d="M22.1,19v6.2v6.2v6.2v6.2V50v6.2v6.2v6.2v6.2V81v6.2h6.2h6.2h6.2h6.2h6.2h6.2h6.2h6.2h6.2V81v-6.2v-6.2v-6.2v-6.2V50v-6.2    v-6.2v-6.2v-6.2V19v-6.2h6.2V6.5h-6.2h-6.2h-6.2h-6.2V0.3h-6.2h-6.2h-6.2v6.2h-6.2h-6.2h-6.2h-6.2v6.2h6.2V19z M34.5,12.8V19v6.2    h6.2h6.2h6.2h6.2h6.2V19v-6.2h6.2V19v6.2v6.2v6.2v6.2V50v6.2v6.2v6.2v6.2V81h-6.2h-6.2h-6.2h-6.2h-6.2h-6.2h-6.2v-6.2v-6.2v-6.2    v-6.2V50v-6.2v-6.2v-6.2v-6.2V19v-6.2H34.5z"></path><polygon points="84.1,12.8 84.1,19 84.1,25.2 84.1,31.4 84.1,37.6 84.1,43.8 84.1,50 84.1,56.2 84.1,62.4 84.1,68.6 84.1,74.8     84.1,81 84.1,87.3 84.1,93.5 90.4,93.5 90.4,87.3 90.4,81 90.4,74.8 90.4,68.6 90.4,62.4 90.4,56.2 90.4,50 90.4,43.8 90.4,37.6     90.4,31.4 90.4,25.2 90.4,19 90.4,12.8   "></polygon></g></g><g class="st0"><g class="st1"><path d="M93.5,31.4v6.2h-6.2v-6.2H93.5v-6.2h-6.2V19H81v6.2h-6.2h-6.2V19v-6.2h6.2V6.5h-6.2h-6.2h-6.2H50h-6.2h-6.2h-6.2h-6.2H19    h-6.2v6.2V19v6.2H6.5v6.2h6.2v6.2H6.5v-6.2H0.3v6.2v6.2V50v6.2v6.2v6.2v6.2V81v6.2h6.2v6.2h6.2H19h6.2h6.2h6.2h6.2H50h6.2h6.2h6.2    h6.2H81h6.2h6.2v-6.2h6.2V81v-6.2v-6.2v-6.2v-6.2V50v-6.2v-6.2v-6.2H93.5z M93.5,50v6.2v6.2v6.2v6.2V81h-6.2v6.2H81h-6.2h-6.2    h-6.2h-6.2H50h-6.2h-6.2h-6.2h-6.2H19h-6.2V81H6.5v-6.2v-6.2v-6.2v-6.2V50v-6.2h6.2V50H19v-6.2v-6.2v-6.2v-6.2V19v-6.2h6.2h6.2    h6.2h6.2H50h6.2h6.2V19v6.2v6.2h6.2h6.2H81v6.2v6.2V50h6.2v-6.2h6.2V50z"></path><rect x="68.6" y="62.4" width="6.2" height="6.2"></rect><rect x="25.2" y="62.4" width="6.2" height="6.2"></rect><polygon points="25.2,56.2 31.4,56.2 31.4,62.4 37.6,62.4 37.6,56.2 43.8,56.2 50,56.2 56.2,56.2 62.4,56.2 62.4,62.4 68.6,62.4     68.6,56.2 74.8,56.2 81,56.2 81,50 74.8,50 68.6,50 62.4,50 56.2,50 50,50 43.8,50 37.6,50 31.4,50 25.2,50 19,50 19,56.2   "></polygon><rect x="19" y="68.6" width="6.2" height="6.2"></rect><rect x="74.8" y="68.6" width="6.2" height="6.2"></rect><rect x="12.8" y="74.8" width="6.2" height="6.2"></rect><rect x="81" y="74.8" width="6.2" height="6.2"></rect><rect x="74.8" y="12.8" width="6.2" height="6.2"></rect></g></g></svg>