<svg height='100px' width='100px'  fill="#000000" xmlns="http://www.w3.org/2000/svg" xmlns:xlink="http://www.w3.org/1999/xlink" version="1.1" x="0px" y="0px" viewBox="0 0 100 100" style="enable-background:new 0 0 100 100;" xml:space="preserve"><rect x="52" y="86" width="4" height="2"></rect><rect x="56" y="84" width="4" height="2"></rect><rect x="60" y="82" width="4" height="2"></rect><rect x="64" y="80" width="4" height="2"></rect><rect x="68" y="78" width="4" height="2"></rect><rect x="72" y="76" width="4" height="2"></rect><rect x="76" y="74" width="4" height="2"></rect><rect x="80" y="72" width="4" height="2"></rect><rect x="84" y="70" width="4" height="2"></rect><g><polygon points="50,80 50,84 52,84 52,86 50,86 50,88 52,88 52,90 48,90 48,88 44,88 44,86 40,86 40,84 36,84 36,82 32,82 32,80    28,80 28,78 24,78 24,76 20,76 20,74 16,74 16,72 12,72 12,70 10,70 10,68 8,68 8,64 10,64 10,62 12,62 12,60 16,60 16,62 20,62    20,64 24,64 24,66 28,66 28,68 32,68 32,70 36,70 36,72 40,72 40,74 44,74 44,76 48,76 48,78 52,78 52,80  "></polygon><rect x="52" y="76" width="4" height="2"></rect><rect x="56" y="74" width="4" height="2"></rect><rect x="60" y="72" width="4" height="2"></rect><rect x="64" y="70" width="4" height="2"></rect><rect x="68" y="68" width="4" height="2"></rect><rect x="72" y="66" width="4" height="2"></rect><rect x="76" y="64" width="4" height="2"></rect><rect x="80" y="62" width="4" height="2"></rect><rect x="84" y="60" width="4" height="2"></rect></g><rect x="36" y="48" width="4" height="2"></rect><rect x="32" y="50" width="4" height="2"></rect><rect x="28" y="52" width="4" height="2"></rect><rect x="24" y="54" width="4" height="2"></rect><rect x="16" y="58" width="4" height="2"></rect><rect x="20" y="56" width="4" height="2"></rect><rect x="60" y="48" width="4" height="2"></rect><rect x="56" y="46" width="4" height="2"></rect><rect x="40" y="46" width="4" height="2"></rect><rect x="64" y="50" width="4" height="2"></rect><rect x="68" y="52" width="4" height="2"></rect><rect x="72" y="54" width="4" height="2"></rect><rect x="76" y="56" width="4" height="2"></rect><rect x="80" y="58" width="4" height="2"></rect><rect x="88" y="68" width="2" height="2"></rect><rect x="88" y="62" width="2" height="2"></rect><rect x="90" y="64" width="2" height="4"></rect><rect x="46" y="61" width="8" height="2"></rect><rect x="46" y="65" width="8" height="2"></rect><rect x="54" y="59" width="4" height="2"></rect><rect x="56" y="55" width="2" height="2"></rect><polygon points="54,36 54,44 56,44 56,46 54,46 54,53 56,53 56,55 54,55 54,57 52,57 52,38 48,38 48,57 46,57 46,55 44,55 44,53   46,53 46,46 44,46 44,44 46,44 46,36 44,36 44,34 48,34 48,36 52,36 52,34 56,34 56,36 "></polygon><rect x="48" y="57" width="4" height="2"></rect><rect x="42" y="55" width="2" height="2"></rect><rect x="54" y="63" width="4" height="2"></rect><rect x="42" y="59" width="4" height="2"></rect><rect x="42" y="63" width="4" height="2"></rect><rect x="40" y="57" width="2" height="2"></rect><rect x="38" y="59" width="2" height="2"></rect><rect x="40" y="61" width="2" height="2"></rect><rect x="58" y="57" width="2" height="2"></rect><rect x="60" y="59" width="2" height="2"></rect><rect x="58" y="61" width="2" height="2"></rect><rect x="42" y="32" width="2" height="2"></rect><rect x="56" y="32" width="2" height="2"></rect><rect x="58" y="16" width="2" height="4"></rect><rect x="58" y="24" width="2" height="4"></rect><rect x="60" y="20" width="2" height="4"></rect><rect x="56" y="14" width="2" height="2"></rect><rect x="56" y="28" width="2" height="2"></rect><polygon points="58,20 58,24 56,24 56,28 54,28 54,30 56,30 56,32 52,32 52,34 48,34 48,32 44,32 44,30 42,30 42,28 40,28 40,24   38,24 38,20 40,20 40,16 42,16 42,14 44,14 44,12 48,12 48,10 52,10 52,12 56,12 56,14 54,14 54,16 56,16 56,20 "></polygon><polygon points="38,56 38,58 36,58 36,60 32,60 32,58 30,58 30,56 32,56 32,54 36,54 36,56 "></polygon><rect x="52" y="80" width="2" height="2"></rect><rect x="54" y="82" width="2" height="2"></rect><rect x="56" y="78" width="2" height="2"></rect><rect x="58" y="80" width="2" height="2"></rect><rect x="60" y="76" width="2" height="2"></rect><rect x="62" y="78" width="2" height="2"></rect><rect x="64" y="74" width="2" height="2"></rect><rect x="66" y="76" width="2" height="2"></rect><rect x="68" y="72" width="2" height="2"></rect><rect x="70" y="74" width="2" height="2"></rect><rect x="72" y="70" width="2" height="2"></rect><rect x="74" y="72" width="2" height="2"></rect><rect x="76" y="68" width="2" height="2"></rect><rect x="78" y="70" width="2" height="2"></rect><rect x="80" y="66" width="2" height="2"></rect><rect x="82" y="68" width="2" height="2"></rect><rect x="84" y="64" width="2" height="2"></rect><rect x="86" y="66" width="2" height="2"></rect><polygon points="30,60 30,62 28,62 28,64 24,64 24,62 22,62 22,60 24,60 24,58 28,58 28,60 "></polygon></svg>