<svg height='100px' width='100px'  fill="#000000" xmlns="http://www.w3.org/2000/svg" xmlns:xlink="http://www.w3.org/1999/xlink" version="1.1" x="0px" y="0px" viewBox="0 0 100 100" style="enable-background:new 0 0 100 100;" xml:space="preserve"><style type="text/css">
	.st0{fill:#000000;}
</style><path class="st0" d="M41.25,30.16h-2.5v-2.5h2.5h2.5h2.5h2.5v2.5h-2.5h-2.5H41.25z M43.75,55.16h-2.5h-2.5v2.5h2.5h2.5h2.5h2.5v-2.5  h-2.5H43.75z M51.25,32.66h2.5v-2.5h-2.5h-2.5v2.5H51.25z M53.75,37.66h2.5v-2.5v-2.5h-2.5v2.5V37.66z M56.25,42.66v2.5v2.5h2.5  v-2.5v-2.5v-2.5v-2.5h-2.5v2.5V42.66z M68.75,62.66v-2.5h-2.5v-2.5h-2.5v-2.5h-2.5v-2.5h-2.5v-2.5h-2.5v-2.5h-2.5v2.5v2.5h-2.5h-2.5  v2.5h2.5v2.5h2.5v2.5h2.5v2.5h2.5v2.5h2.5v2.5h2.5v2.5h2.5h2.5v-2.5h2.5v-2.5v-2.5H68.75z M36.25,52.66h-2.5v2.5h2.5h2.5v-2.5H36.25  z M38.75,32.66v-2.5h-2.5h-2.5v2.5h2.5H38.75z M33.75,47.66h-2.5v2.5v2.5h2.5v-2.5V47.66z M31.25,42.66v-2.5v-2.5h-2.5v2.5v2.5v2.5  v2.5h2.5v-2.5V42.66z M33.75,35.16v-2.5h-2.5v2.5v2.5h2.5V35.16z M51.25,45.16v-2.5v-2.5h-2.5h-2.5h-2.5h-2.5h-2.5h-2.5v2.5v2.5h2.5  h2.5h2.5h2.5h2.5H51.25z"></path></svg>