<svg height='100px' width='100px'  fill="#000000" xmlns="http://www.w3.org/2000/svg" xmlns:xlink="http://www.w3.org/1999/xlink" version="1.1" x="0px" y="0px" viewBox="0 0 100 100" enable-background="new 0 0 100 100" xml:space="preserve"><polygon points="57.156,21.424 57.156,16.664 57.156,11.904 52.395,11.904 52.395,16.664 52.395,21.424 52.395,26.184   57.156,26.184 57.156,30.944 57.156,35.704 52.395,35.704 52.395,40.464 52.395,45.244 57.156,45.244 57.156,40.464 61.916,40.464   61.916,35.704 61.916,30.944 61.916,26.184 61.916,21.424 "></polygon><polygon points="38.085,21.424 38.085,16.664 38.085,11.904 33.326,11.904 33.326,16.664 33.326,21.424 33.326,26.184   38.085,26.184 38.085,30.944 38.085,35.704 33.326,35.704 33.326,40.464 33.326,45.244 38.085,45.244 38.085,40.464 42.846,40.464   42.846,35.704 42.846,30.944 42.846,26.184 42.846,21.424 "></polygon><path d="M80.955,54.774h-4.76v-4.76h-4.76h-4.76h-4.76h-4.76h-4.762h-4.789h-4.76h-4.76h-4.76h-4.76h-4.76h-4.76h-4.76v4.76v4.76  v4.76h4.76v4.76v4.761h4.76v4.76h4.76v4.761h4.76v4.76h4.76h4.76h4.76h4.789h4.762v-4.76h4.76v-4.761h4.76h4.76h4.76h4.76v-4.76  h4.76v-4.761v-4.76v-4.76v-4.76H80.955z M57.156,73.814v4.76h-4.762v4.761h-4.789h-4.76h-4.76v-4.761h-4.76v-4.76h-4.76v-4.761  h-4.76v-4.76v-4.76h-4.76v-4.76h4.76h4.76h4.76h4.76h4.76h4.76h4.789h4.762h4.76h4.76h4.76v4.76h-4.76v4.76v4.76h-4.76v4.761H57.156  z M80.955,64.294v4.76h-4.76v4.761h-4.76v-4.761v-4.76h4.76v-4.76h4.76V64.294z"></path></svg>