<svg height='100px' width='100px'  fill="#000000" xmlns="http://www.w3.org/2000/svg" xmlns:xlink="http://www.w3.org/1999/xlink" version="1.1" x="0px" y="0px" viewBox="206 206 100 100" enable-background="new 206 206 100 100" xml:space="preserve"><g><rect x="276.74" y="221.435" width="6.913" height="6.913"></rect><rect x="283.653" y="228.348" width="6.913" height="6.913"></rect><polygon points="290.566,235.261 290.566,242.175 290.566,249.088 290.566,256.001 290.566,262.914 297.479,262.914    297.479,256.001 297.479,249.088 297.479,242.175 297.479,235.261  "></polygon><rect x="269.826" y="276.74" width="6.913" height="6.913"></rect><polygon points="256,283.653 249.087,283.653 249.087,290.566 256,290.566 262.913,290.566 269.826,290.566 269.826,283.653    262.913,283.653  "></polygon><polygon points="235.261,290.566 235.261,283.653 228.348,283.653 228.348,290.566 221.435,290.566 221.435,297.479    228.348,297.479 235.261,297.479 242.174,297.479 249.087,297.479 249.087,290.566 242.174,290.566  "></polygon><rect x="276.74" y="269.827" width="6.913" height="6.913"></rect><rect x="283.653" y="262.914" width="6.913" height="6.913"></rect><rect x="235.261" y="276.74" width="6.913" height="6.913"></rect><rect x="228.348" y="269.827" width="6.913" height="6.913"></rect><rect x="221.435" y="262.914" width="6.913" height="6.913"></rect><polygon points="221.435,249.088 221.435,242.175 221.435,235.261 214.522,235.261 214.522,242.175 214.522,249.088    214.522,256.001 214.522,262.914 221.435,262.914 221.435,256.001  "></polygon><polygon points="249.087,221.435 256,221.435 262.913,221.435 269.826,221.435 276.74,221.435 276.74,214.522 269.826,214.522    262.913,214.522 256,214.522 249.087,214.522 242.174,214.522 235.261,214.522 235.261,221.435 242.174,221.435  "></polygon><rect x="228.348" y="221.435" width="6.913" height="6.913"></rect><rect x="221.435" y="228.348" width="6.913" height="6.913"></rect></g></svg>