<svg height='100px' width='100px'  fill="#000000" xmlns="http://www.w3.org/2000/svg" xmlns:xlink="http://www.w3.org/1999/xlink" version="1.1" x="0px" y="0px" viewBox="0 0 100 100" enable-background="new 0 0 100 100" xml:space="preserve"><path d="M30.958,33.68v-5.32h-5.32v-5.32H9.688v5.32h10.63v5.32h5.319V70.9h5.32v-5.31h42.54v-5.32h5.32v-5.32h5.319V33.68H30.958z   M78.818,49.63h-5.32v5.32h-5.32v5.32h-37.22V39h47.86V49.63z M68.178,17.72h-5.31V12.4h5.31V17.72z M62.868,23.041h-5.32v-5.32  h5.32V23.041z M52.229,28.36v-5.32h5.319v5.32H52.229z M52.229,23.041h-5.32v-5.32h5.32V23.041z M20.318,70.9h5.319v5.32h53.181  V70.9h5.319v10.64h-5.319v5.32H68.178v-5.32h-26.59v5.32h-10.63v-5.32h-10.64V70.9z"></path></svg>