<svg height='100px' width='100px'  fill="#000000" xmlns="http://www.w3.org/2000/svg" xmlns:xlink="http://www.w3.org/1999/xlink" version="1.1" x="0px" y="0px" viewBox="0 0 41 40" style="enable-background:new 0 0 41 40;" xml:space="preserve"><g><polygon points="7,27 6,27 5,27 4,27 3,27 3,28 4,28 5,28 6,28 7,28 8,28 8,27  "></polygon><rect x="8" y="26" width="1" height="1"></rect><rect x="9" y="25" width="1" height="1"></rect><rect x="10" y="24" width="1" height="1"></rect><rect x="11" y="23" width="1" height="1"></rect><polygon points="14,23 14,22 13,22 12,22 12,23 13,23  "></polygon><polygon points="14,25 14,26 15,26 16,26 17,26 17,27 17,28 18,28 18,27 18,26 18,25 17,25 16,25 15,25 15,24 15,23 14,23 14,24     "></polygon><rect x="13" y="26" width="1" height="1"></rect><rect x="12" y="27" width="1" height="1"></rect><rect x="11" y="28" width="1" height="1"></rect><rect x="8" y="28" width="1" height="1"></rect><polygon points="11,30 11,29 10,29 9,29 9,30 10,30 10,31 10,32 11,32 11,31  "></polygon><polygon points="14,32 14,31 13,31 13,32 12,32 11,32 11,33 12,33 13,33 13,34 14,34 14,33  "></polygon><rect x="14" y="30" width="1" height="1"></rect><rect x="15" y="29" width="1" height="1"></rect><rect x="16" y="28" width="1" height="1"></rect><rect x="18" y="28" width="1" height="1"></rect><polygon points="19,31 19,32 20,32 21,32 21,31 20,31 20,30 20,29 19,29 19,30  "></polygon><rect x="18" y="32" width="1" height="1"></rect><rect x="17" y="33" width="1" height="1"></rect><polygon points="16,34 15,34 14,34 14,35 15,35 16,35 17,35 17,34  "></polygon><polygon points="19,36 18,36 18,35 17,35 17,36 17,37 18,37 19,37 20,37 21,37 21,36 20,36  "></polygon><rect x="21" y="35" width="1" height="1"></rect><polygon points="22,35 23,35 23,34 23,33 22,33 22,34  "></polygon><rect x="21" y="32" width="1" height="1"></rect><rect x="22" y="36" width="1" height="1"></rect><polygon points="23,37 23,38 24,38 25,38 25,37 24,37  "></polygon><rect x="25" y="36" width="1" height="1"></rect><polygon points="27,35 26,35 26,36 27,36 28,36 29,36 29,35 28,35  "></polygon><rect x="28" y="30" width="1" height="1"></rect><rect x="27" y="29" width="1" height="1"></rect><rect x="26" y="28" width="1" height="1"></rect><rect x="25" y="27" width="1" height="1"></rect><rect x="24" y="26" width="1" height="1"></rect><rect x="23" y="25" width="1" height="1"></rect><rect x="26" y="33" width="1" height="1"></rect><rect x="25" y="32" width="1" height="1"></rect><rect x="24" y="31" width="1" height="1"></rect><rect x="23" y="30" width="1" height="1"></rect><rect x="22" y="29" width="1" height="1"></rect><rect x="21" y="28" width="1" height="1"></rect><polygon points="33,29 33,30 33,31 33,32 32,32 31,32 30,32 30,31 29,31 29,32 29,33 29,34 29,35 30,35 30,34 30,33 31,33 32,33    33,33 34,33 34,32 34,31 34,30 35,30 35,29 34,29  "></polygon><rect x="32" y="28" width="1" height="1"></rect><rect x="31" y="27" width="1" height="1"></rect><rect x="30" y="26" width="1" height="1"></rect><rect x="29" y="25" width="1" height="1"></rect><rect x="28" y="24" width="1" height="1"></rect><rect x="27" y="23" width="1" height="1"></rect><rect x="26" y="22" width="1" height="1"></rect><polygon points="35,27 35,28 35,29 36,29 36,28 37,28 38,28 39,28 40,28 40,27 39,27 38,27 37,27 36,27 36,26 36,25 35,25 35,26     "></polygon><rect x="34" y="24" width="1" height="1"></rect><rect x="33" y="23" width="1" height="1"></rect><rect x="32" y="22" width="1" height="1"></rect><rect x="31" y="21" width="1" height="1"></rect><rect x="30" y="20" width="1" height="1"></rect><rect x="29" y="19" width="1" height="1"></rect><rect x="28" y="18" width="1" height="1"></rect><rect x="27" y="17" width="1" height="1"></rect><polygon points="23,17 24,17 25,17 26,17 27,17 27,16 26,16 25,16 24,16 23,16 22,16 21,16 21,17 22,17  "></polygon><rect x="20" y="17" width="1" height="1"></rect><rect x="19" y="18" width="1" height="1"></rect><polygon points="15,20 16,20 17,20 18,20 19,20 19,19 18,19 17,19 16,19 15,19 14,19 14,20  "></polygon><polygon points="13,18 13,19 14,19 14,18 14,17 13,17  "></polygon><rect x="14" y="16" width="1" height="1"></rect><rect x="15" y="15" width="1" height="1"></rect><rect x="16" y="14" width="1" height="1"></rect><rect x="17" y="13" width="1" height="1"></rect><rect x="18" y="12" width="1" height="1"></rect><polygon points="29,11 28,11 27,11 26,11 25,11 24,11 23,11 22,11 21,11 20,11 19,11 19,12 20,12 21,12 22,12 23,12 24,12 25,12    26,12 27,12 28,12 29,12 30,12 30,11  "></polygon><rect x="30" y="12" width="1" height="1"></rect><rect x="31" y="13" width="1" height="1"></rect><rect x="32" y="14" width="1" height="1"></rect><polygon points="38,15 37,15 36,15 35,15 34,15 33,15 33,16 34,16 35,16 36,16 37,16 38,16 39,16 40,16 40,15 39,15  "></polygon><polygon points="8,15 7,15 6,15 5,15 4,15 3,15 3,16 4,16 5,16 6,16 7,16 8,16 9,16 10,16 10,15 9,15  "></polygon><rect x="10" y="14" width="1" height="1"></rect><rect x="11" y="13" width="1" height="1"></rect><rect x="12" y="12" width="1" height="1"></rect><polygon points="17,11 16,11 15,11 14,11 13,11 13,12 14,12 15,12 16,12 17,12 18,12 18,11  "></polygon></g></svg>