<svg height='100px' width='100px'  fill="#000000" xmlns="http://www.w3.org/2000/svg" xmlns:xlink="http://www.w3.org/1999/xlink" version="1.1" x="0px" y="0px" viewBox="0 0 100 100" enable-background="new 0 0 100 100" xml:space="preserve"><path d="M34.045,34.916v-5.32h-5.32v-5.32h-15.95v5.32h10.63v5.32h5.32v31.91v5.31h5.32v-5.31h42.54v-5.32h5.32v-5.32h5.32v-21.27  H34.045z M81.905,50.866h-5.32v5.32h-5.32v5.32h-37.22v-21.27h47.86V50.866z M60.635,29.596h-5.32v-5.32h5.32V29.596z   M60.635,18.956h-5.32V8.326h5.32V18.956z M23.405,72.136h5.32v5.32h53.18v-5.32h5.32v10.64h-5.32v5.32h-10.64v-5.32h-26.59v5.32  h-10.63v-5.32h-10.64V72.136z"></path></svg>