<svg height='100px' width='100px'  fill="#000000" xmlns="http://www.w3.org/2000/svg" xmlns:xlink="http://www.w3.org/1999/xlink" version="1.1" x="0px" y="0px" viewBox="206 206 100 100" enable-background="new 206 206 100 100" xml:space="preserve"><g><polygon points="290.062,228.751 290.062,221.938 283.25,221.938 276.437,221.938 269.624,221.938 262.813,221.938 256,221.938    249.187,221.938 242.375,221.938 235.562,221.938 228.75,221.938 221.937,221.938 221.937,228.751 215.125,228.751    215.125,235.563 215.125,242.375 215.125,249.188 215.125,256 215.125,262.813 215.125,269.625 215.125,276.437 215.125,283.251    221.937,283.251 221.937,276.437 221.937,269.625 221.937,262.813 221.937,256 221.937,249.188 221.937,242.375 221.937,235.563    228.75,235.563 228.75,228.751 235.562,228.751 242.375,228.751 249.187,228.751 256,228.751 262.813,228.751 269.624,228.751    276.437,228.751 283.25,228.751 283.25,235.563 290.062,235.563 290.062,242.375 290.062,249.188 290.062,256 290.062,262.813    290.062,269.625 290.062,276.437 290.062,283.251 296.874,283.251 296.874,276.437 296.874,269.625 296.874,262.813 296.874,256    296.874,249.188 296.874,242.375 296.874,235.563 296.874,228.751  "></polygon><rect x="276.437" y="235.563" width="6.813" height="6.812"></rect><rect x="269.624" y="242.375" width="6.813" height="6.813"></rect><rect x="262.813" y="249.188" width="6.812" height="6.813"></rect><polygon points="249.187,256 249.187,262.813 256,262.813 262.813,262.813 262.813,256 256,256  "></polygon><rect x="242.375" y="249.188" width="6.813" height="6.813"></rect><rect x="235.562" y="242.375" width="6.813" height="6.813"></rect><rect x="228.75" y="235.563" width="6.812" height="6.812"></rect><polygon points="276.437,283.251 269.624,283.251 262.813,283.251 256,283.251 249.187,283.251 242.375,283.251 235.562,283.251    228.75,283.251 221.937,283.251 221.937,290.062 228.75,290.062 235.562,290.062 242.375,290.062 249.187,290.062 256,290.062    262.813,290.062 269.624,290.062 276.437,290.062 283.25,290.062 290.062,290.062 290.062,283.251 283.25,283.251  "></polygon></g></svg>