<svg height='100px' width='100px'  fill="#000000" xmlns="http://www.w3.org/2000/svg" xmlns:xlink="http://www.w3.org/1999/xlink" version="1.1" x="0px" y="0px" viewBox="0 0 100 100" enable-background="new 0 0 100 100" xml:space="preserve"><path d="M82.917,17.159v27.373h-5.478V17.159H82.917z M71.97,60.947h5.47V44.531h-5.47V60.947z M77.439,17.159v-5.478h-5.47v5.478  H77.439z M33.65,71.894v5.469H71.97v-5.469H33.65z M61.022,60.947V44.531h-5.478v16.416h-5.47V44.531h-5.468v16.416H33.65v5.478  H71.97v-5.478H61.022z M61.022,44.531h5.479V22.637h-5.479v5.469h-5.478v5.469h5.478V44.531z M39.128,82.841v5.478h5.479v5.469  h16.415v-5.469h5.479v-5.478H39.128z M55.545,39.053v-5.478h-5.47v5.478H55.545z M44.607,33.575h5.468v-5.469h-5.468v-5.469h-5.479  v21.894h5.479V33.575z M71.97,11.681V6.212H33.65v5.469H71.97z M33.65,44.531h-5.469v16.416h5.469V44.531z M33.65,11.681h-5.469  v5.478h5.469V11.681z M28.182,17.159h-5.469v27.373h5.469V17.159z"></path></svg>